<svg width="80" height="80" viewBox="0 0 80 80" fill="none" xmlns="http://www.w3.org/2000/svg">
<path d="M40 0C17.931 0 0 17.931 0 40C0 62.069 17.931 80 40 80C62.069 80 80 62.069 80 40C80 17.931 62.069 0 40 0ZM62.6207 53.0575C62.3449 54.8964 61.2416 56.1837 60.6893 56.6437C57.4706 60.3215 53.4253 60.7814 51.2181 60.7814C50.1148 60.7814 49.2867 60.6897 49.011 60.5974C40.4596 59.31 33.0108 52.9652 32.735 52.6893C20.1374 41.655 18.7578 33.7468 18.5744 31.9077C16.7355 23.3563 22.7122 18.2064 22.988 17.9305C24.0913 16.919 25.5627 16.3674 26.9417 16.3674C28.7806 16.3674 30.1604 17.2872 30.4361 17.4706C30.5279 17.5624 30.6202 17.6547 30.8037 17.7465L36.7803 23.6315C38.4352 25.3788 38.8033 27.1259 38.7117 28.2292C38.62 30.5281 37.1486 32.0913 36.6887 32.5511L35.3097 33.9301C38.0685 38.8953 42.8502 42.2981 45.3325 43.9529L47.4473 41.8381C47.6314 41.7464 47.7231 41.5623 47.9072 41.4706C48.9187 40.8266 50.022 40.4591 51.1259 40.4591C53.1489 40.4591 54.528 41.6547 54.8962 42.0222L60.8729 47.9073C60.9646 47.999 61.0569 48.0914 61.0569 48.1831C62.6207 50.2067 62.8042 51.9542 62.6207 53.0575Z" fill="#5BC97A"/>
</svg>
