<svg width="51" height="51" viewBox="0 0 51 51" fill="none" xmlns="http://www.w3.org/2000/svg">
<path d="M1.14292 44.9189C0.90282 45.7434 0.967202 46.6269 1.32431 47.4078C1.6818 48.189 2.30813 48.8154 3.08942 49.1729C3.87029 49.53 4.75379 49.5943 5.57822 49.3542L12.8587 47.2423C18.1756 50.2363 24.3973 51.203 30.3711 49.9639C36.3449 48.7249 41.6692 45.3639 45.3571 40.5022C49.0448 35.6408 50.8471 29.6083 50.4305 23.521C50.0135 17.4335 47.4062 11.7023 43.0902 7.38916C38.7741 3.07582 33.0427 0.471546 26.9544 0.0579731C20.8665 -0.355183 14.8352 1.45041 9.9762 5.14087C5.11676 8.83162 1.75883 14.1573 0.523148 20.1327C-0.712531 26.1082 0.25768 32.3285 3.25471 37.6441L1.14292 44.9189ZM9.31899 9.31053C13.3158 5.31265 18.669 2.96316 24.3176 2.72874C29.9659 2.49395 35.4955 4.39118 39.8106 8.04373C44.1251 11.6963 46.9089 16.8374 47.6094 22.4471C48.3104 28.0563 46.8766 33.7239 43.5933 38.3259C40.31 42.9275 35.4165 46.1267 29.8841 47.2889C24.3522 48.4507 18.585 47.4907 13.728 44.599C13.4012 44.4032 13.007 44.354 12.6419 44.4631L4.81883 46.7489C4.51095 46.8477 4.17354 46.7663 3.9448 46.5372C3.71569 46.3084 3.63428 45.971 3.73311 45.6632L6.00796 37.829C6.11702 37.464 6.06779 37.0701 5.87201 36.7433C3.31166 32.4391 2.25998 27.4039 2.88451 22.435C3.50898 17.4661 5.77361 12.8475 9.31972 9.31038L9.31899 9.31053Z" fill="#3C3C3C"/>
<path d="M24.8464 40.7056C26.7595 41.4228 28.8387 41.5747 30.8358 41.1437C32.8334 40.7124 34.6645 39.716 36.1115 38.2732L37.3873 36.9974C38.1667 36.2177 38.5204 35.1089 38.3359 34.0216C38.1515 32.9348 37.4521 32.0043 36.4591 31.5253L29.7055 28.2677C29.1764 28.0124 28.5433 28.1264 28.1361 28.5502L26.0351 30.7216H25.9809C23.1547 29.5984 20.9147 27.3622 19.7865 24.5379L21.9579 22.3665C22.3643 21.9582 22.4688 21.338 22.2185 20.8191L18.9609 14.0654H18.9613C18.4822 13.0725 17.5518 12.373 16.4645 12.1886C15.3776 12.0042 14.2685 12.3575 13.4887 13.1373L12.2239 14.3859C10.7826 15.8313 9.78617 17.66 9.35301 19.6551C8.92016 21.65 9.06861 23.7272 9.78056 25.6404C11.0677 29.0831 13.0787 32.2096 15.6776 34.8086C18.2767 37.4076 21.4032 39.4189 24.8462 40.7056L24.8464 40.7056ZM14.1513 16.3129L15.4271 15.0371C15.585 14.889 15.8039 14.8239 16.0175 14.861C16.2311 14.8985 16.4144 15.034 16.5128 15.2272L19.3686 21.1178L17.767 22.7194C17.4273 23.0651 17.1956 23.5021 17.0994 23.9771C17.0028 24.4523 17.0463 24.945 17.224 25.3957C18.6051 28.9686 21.4093 31.8066 24.9656 33.2298L25.1232 33.2897C25.5939 33.4779 26.1097 33.521 26.605 33.4139C27.1003 33.3063 27.5525 33.0533 27.9028 32.6871L29.3956 31.1344L35.2642 33.963H35.2646C35.4578 34.0614 35.5933 34.2447 35.6304 34.4583C35.6679 34.6719 35.6028 34.8904 35.4543 35.0487L34.1785 36.3245C33.1042 37.4011 31.7431 38.1472 30.2571 38.4732C28.7715 38.7993 27.223 38.6925 25.7964 38.165C22.7199 37.0133 19.9266 35.216 17.6041 32.8931C15.2811 30.5706 13.4839 27.7772 12.3322 24.7007C11.8009 23.2753 11.69 21.7272 12.0122 20.2404C12.3345 18.7537 13.0767 17.3904 14.1511 16.3129L14.1513 16.3129Z" fill="#3C3C3C"/>
<path d="M31.6701 20.184C32.025 20.1909 32.3681 20.0583 32.6256 19.8148L35.2261 17.2143C35.757 16.6838 35.757 15.8233 35.2261 15.2925C34.6955 14.7619 33.8351 14.7619 33.3042 15.2925L30.6821 17.8714C30.2928 18.2596 30.1762 18.8443 30.3867 19.3521C30.5973 19.8599 31.0934 20.1905 31.6429 20.1894L31.6701 20.184Z" fill="#3C3C3C"/>
<path d="M32.7998 24.277C32.7597 25.0249 33.333 25.6642 34.081 25.705L37.398 25.8895H37.4741C38.2239 25.9103 38.8484 25.3199 38.8697 24.5701C38.8905 23.8207 38.2997 23.1958 37.5503 23.175L34.2333 22.9905C33.872 22.9697 33.5179 23.0939 33.2487 23.3355C32.9798 23.5771 32.8181 23.9161 32.8 24.277L32.7998 24.277Z" fill="#3C3C3C"/>
<path d="M26.1434 17.6974H26.2195C26.9675 17.6565 27.5408 17.0176 27.5007 16.2697L27.3163 12.9526V12.9523C27.2742 12.2028 26.6323 11.6291 25.8829 11.6711C25.1335 11.7131 24.5598 12.3547 24.6018 13.1045L24.7862 16.4215C24.8294 17.1391 25.4247 17.6985 26.1434 17.6973L26.1434 17.6974Z" fill="#3C3C3C"/>
</svg>
