<svg width="38" height="45" viewBox="0 0 38 45" fill="none" xmlns="http://www.w3.org/2000/svg">
<path d="M27.8212 24.5714C30.426 24.5714 32.9241 25.6061 34.766 27.448C36.6078 29.2899 37.6426 31.788 37.6426 34.3928C37.6426 36.9976 36.6078 39.4957 34.766 41.3376C32.9241 43.1795 30.426 44.2142 27.8212 44.2142C25.2163 44.2142 22.7182 43.1795 20.8764 41.3376C19.0345 39.4957 17.9997 36.9976 17.9997 34.3928C17.9997 31.788 19.0345 29.2899 20.8764 27.448C22.7182 25.6061 25.2163 24.5714 27.8212 24.5714ZM17.9997 0.0178223C19.714 0.0176682 21.3631 0.674969 22.6072 1.85432C23.8513 3.03368 24.5958 4.64527 24.6872 6.35711L24.6962 6.71425H34.5176C34.8569 6.71435 35.1835 6.84326 35.4315 7.07492C35.6794 7.30657 35.8302 7.62371 35.8533 7.96225C35.8765 8.30079 35.7702 8.63549 35.5561 8.89871C35.342 9.16194 35.0359 9.33407 34.6997 9.38032L34.5176 9.39282H32.6265L31.4944 23.3785C30.6379 23.0932 29.7509 22.9092 28.8515 22.8303L29.9408 9.39282H6.05865L8.22115 36.0571C8.3028 37.0633 8.7602 38.0018 9.50236 38.6861C10.2445 39.3703 11.2171 39.7501 12.2265 39.75L17.5229 39.7517C18.0354 40.7357 18.6854 41.6375 19.4462 42.4303L12.2265 42.4285C10.5441 42.4287 8.92327 41.7955 7.68645 40.6549C6.44963 39.5144 5.68745 37.9501 5.55151 36.2732L3.37115 9.39282H1.48186C1.15823 9.39281 0.845539 9.2756 0.601631 9.06288C0.357723 8.85016 0.199093 8.55631 0.155078 8.23568L0.142578 8.05354C0.142592 7.7299 0.259798 7.41721 0.47252 7.1733C0.685242 6.92939 0.979089 6.77077 1.29972 6.72675L1.48186 6.71425H11.3033C11.3033 4.93825 12.0088 3.23498 13.2646 1.97916C14.5205 0.723337 16.2237 0.0178223 17.9997 0.0178223V0.0178223ZM23.3997 29.9714C23.2323 30.1388 23.1383 30.3659 23.1383 30.6026C23.1383 30.8394 23.2323 31.0665 23.3997 31.2339L26.5587 34.3946L23.4033 37.5482C23.2356 37.7156 23.1414 37.9428 23.1412 38.1797C23.141 38.4166 23.235 38.6439 23.4024 38.8116C23.5698 38.9792 23.797 39.0735 24.0339 39.0737C24.2708 39.0738 24.4981 38.9799 24.6658 38.8125L27.8212 35.6571L30.9819 38.816C31.0642 38.9013 31.1628 38.9693 31.2717 39.0161C31.3806 39.0629 31.4978 39.0875 31.6163 39.0886C31.7349 39.0896 31.8525 39.067 31.9622 39.0221C32.0719 38.9772 32.1716 38.9109 32.2554 38.8271C32.3393 38.7433 32.4056 38.6436 32.4505 38.5339C32.4954 38.4241 32.5179 38.3065 32.5169 38.188C32.5159 38.0694 32.4913 37.9523 32.4445 37.8434C32.3977 37.7344 32.3296 37.6359 32.2444 37.5535L29.0854 34.3928L32.2479 31.2321C32.4106 31.0637 32.5006 30.8382 32.4985 30.6041C32.4965 30.37 32.4026 30.146 32.2371 29.9805C32.0715 29.8149 31.8476 29.721 31.6135 29.719C31.3794 29.717 31.1538 29.807 30.9854 29.9696L27.8229 33.1303L24.6622 29.9696C24.4948 29.8022 24.2677 29.7082 24.031 29.7082C23.7942 29.7082 23.5672 29.8022 23.3997 29.9696V29.9714ZM17.9997 2.69639C16.9816 2.69627 16.0015 3.08263 15.2573 3.77741C14.5131 4.47218 14.0605 5.42356 13.9908 6.43925L13.9819 6.71425H22.0176L22.0087 6.43925C21.939 5.42356 21.4863 4.47218 20.7421 3.77741C19.998 3.08263 19.0178 2.69627 17.9997 2.69639V2.69639Z" fill="#B7B7B7"/>
</svg>
