<svg width="37" height="37" viewBox="0 0 37 37" fill="none" xmlns="http://www.w3.org/2000/svg">
<path d="M28.1428 0C27.8457 0.00541458 27.562 0.12479 27.3508 0.333897L4.32189 23.3567C4.10448 23.5728 3.98198 23.8667 3.9812 24.1733L3.94741 31.8913C3.94612 32.1992 4.06811 32.4949 4.28578 32.7125C4.50371 32.9303 4.79926 33.052 5.10717 33.0508L12.8246 33.0167C13.13 33.0149 13.4219 32.8924 13.637 32.6761L36.664 9.65332C36.8793 9.437 37 9.1441 37 8.83908C37 8.5338 36.8793 8.2409 36.664 8.02457L28.9802 0.333578C28.7573 0.11442 28.4553 -0.00521577 28.1427 0.00200525L28.1428 0ZM28.1699 2.78848L34.2177 8.83473L31.4151 11.6369L25.3717 5.586L28.1699 2.78848ZM23.7334 7.22169L29.7813 13.2679L12.3393 30.7073L6.26668 30.7323L6.29144 24.6613L23.7334 7.22169ZM1.0723 34.6893H1.07205C0.665852 34.7192 0.305318 34.9606 0.122698 35.3249C-0.0598955 35.6889 -0.0374607 36.1221 0.181758 36.4655C0.400975 36.8087 0.784477 37.0116 1.19171 36.9995H31.9387C32.3454 36.9905 32.7173 36.7685 32.9182 36.4147C33.1189 36.061 33.1189 35.6278 32.9182 35.2741C32.7173 34.9203 32.3454 34.6983 31.9387 34.6893H1.19171C1.152 34.6872 1.11202 34.6872 1.07205 34.6893L1.0723 34.6893Z" fill="#B7B7B7"/>
</svg>
