<svg width="80" height="80" viewBox="0 0 80 80" fill="none" xmlns="http://www.w3.org/2000/svg">
<path d="M57.4249 31.3282L56.5689 31.768C51.4568 34.5202 46.3447 37.2401 41.2576 40.0001C40.891 40.2428 40.4613 40.3717 40.0215 40.3717C39.5818 40.3717 39.1521 40.2428 38.7855 40.0001C33.6577 37.1758 28.4976 34.4002 23.3371 31.6564C23.0893 31.5202 22.8248 31.4243 22.5368 31.3043L22.457 31.4483L33.1768 39.8322L24.3766 48.9203L24.4726 49.0403C24.6567 48.9203 24.8565 48.8165 25.0328 48.6881C28.2728 46.3762 31.5205 44.0722 34.7448 41.7362C35.0891 41.4142 35.6242 41.4142 35.9691 41.7362C37.0813 42.5364 38.2492 43.1999 39.3608 43.9599C39.7408 44.293 40.3089 44.293 40.6889 43.9599C41.825 43.1597 43.017 42.48 44.1447 41.6882C44.4695 41.3785 44.9801 41.3785 45.3049 41.6882C48.5766 44.0883 51.8651 46.384 55.1447 48.7283C55.3606 48.8801 55.5844 49.0162 55.8087 49.168L55.8729 49.072L46.8405 39.84L57.5285 31.4963L57.4249 31.3282Z" fill="#5BC97A"/>
<path d="M40 0C29.3912 0 19.2173 4.21426 11.7159 11.7159C4.21425 19.217 0 29.3915 0 40C0 50.6085 4.21425 60.7827 11.7159 68.2841C19.217 75.7857 29.3915 80 40 80C50.6085 80 60.7827 75.7857 68.2841 68.2841C75.7857 60.783 80 50.6085 80 40C80 29.3915 75.7857 19.2173 68.2841 11.7159C60.783 4.21426 50.6085 0 40 0ZM59.9999 48.7197C59.9519 49.0478 59.8877 49.3837 59.8637 49.7118C59.7705 50.7794 59.2895 51.7765 58.511 52.5131C57.7326 53.2503 56.7113 53.6766 55.6399 53.7117H24.3601C23.2452 53.6827 22.1844 53.224 21.3997 52.4305C20.615 51.637 20.1681 50.5711 20.152 49.4557C20.152 48.5277 20.0482 47.5997 20.0002 46.6717V33.2561C20.0002 32.8961 20.0961 32.5362 20.1123 32.1841C20.0967 31.3521 20.1447 30.5205 20.2563 29.6958C20.4979 28.7187 21.0588 27.8498 21.85 27.2265C22.6413 26.6038 23.6173 26.2623 24.624 26.2561H55.3923C56.5491 26.2505 57.6625 26.6936 58.4989 27.4916C59.3359 28.2896 59.8309 29.3806 59.8806 30.5362C59.8806 30.8163 59.9604 31.0964 60.0006 31.376L59.9999 48.7197Z" fill="#5BC97A"/>
</svg>
