<svg width="80" height="67" viewBox="0 0 80 67" fill="none" xmlns="http://www.w3.org/2000/svg">
<path d="M19.0542 43.7188C17.5922 43.7757 16.12 44.1072 14.7137 44.764C9.08869 47.3885 6.64168 54.1156 9.2644 59.7441C11.8871 65.3725 18.6093 67.8228 24.2345 65.1978C29.8595 62.5734 32.3065 55.8462 29.6838 50.2178C27.7166 45.9967 23.441 43.5643 19.0543 43.7189L19.0542 43.7188ZM19.1568 46.2088C22.5704 46.081 25.879 47.9688 27.4186 51.2718C29.471 55.6753 27.576 60.8785 23.1753 62.9315C18.7751 64.9845 13.5827 63.0911 11.5301 58.6887C9.47765 54.2853 11.3677 49.0827 15.7684 47.0291C16.8683 46.5163 18.019 46.2512 19.1568 46.2088V46.2088Z" fill="#818181"/>
<path fill-rule="evenodd" clip-rule="evenodd" d="M42.477 10.7215C40.0015 10.0853 37.7844 12.7555 38.8637 15.0719L40.3575 18.2845H40.3581C40.4993 18.5847 40.7537 18.8163 41.0662 18.929L44.3915 20.14L45.2459 17.7913L42.4043 16.7561L41.1297 14.0172C40.8686 13.457 41.2553 12.9899 41.8524 13.1434L51.6326 15.6528C55.3313 16.6031 57.3162 20.5562 55.8709 24.0948L46.4083 47.2535L36.6432 51.8138L34.7878 47.8345C30.8503 39.3852 20.7772 35.7162 12.332 39.6565L10.7254 40.4087L4.60764 36.0191L14.6463 34.8668L14.9537 35.1067C16.1943 36.0917 17.8282 36.4349 19.3578 36.0241L26.5989 34.081C27.7775 33.7651 28.8004 33.0324 29.4751 32.0157L31.9751 28.2461C34.1827 24.9174 38.0621 23.1065 42.0287 23.5541L47.9316 24.2232L48.2101 21.7382L42.3072 21.0691C37.4132 20.5172 32.6136 22.7588 29.8903 26.8642L27.3903 30.6338C27.0521 31.1433 26.5448 31.5105 25.955 31.669L18.7138 33.6076C17.9465 33.8124 17.1289 33.6455 16.5068 33.1483L16.2043 32.9084C15.6848 32.4954 15.0174 32.3057 14.3589 32.381L1.1121 33.9039L1.11098 33.9033C0.595909 33.9608 0.170136 34.3302 0.0401065 34.8319C-0.0899227 35.3336 0.102607 35.8637 0.525038 36.1639L9.86051 42.8627C10.2283 43.1272 10.7104 43.1718 11.1206 42.9799L13.3913 41.9207C20.6112 38.5518 29.1542 41.6629 32.5214 48.8883L34.9042 54.0005V53.9999C35.1972 54.6238 35.94 54.8922 36.5638 54.6009L47.911 49.3085H47.9116C48.1951 49.1745 48.4183 48.9396 48.5366 48.6489L58.1845 25.0373C60.1862 20.1372 57.377 14.5478 52.252 13.2308L42.477 10.7215Z" fill="#818181"/>
<path d="M61.1211 35.5473C61.4135 36.174 61.1423 36.9195 60.5157 37.2119C59.889 37.5042 59.144 37.2331 58.8521 36.6064C58.5597 35.9792 58.8309 35.2342 59.4576 34.9418C60.0842 34.6495 60.8287 34.9206 61.1211 35.5473Z" fill="#818181"/>
<path d="M20.6068 54.4502C20.8992 55.0769 20.628 55.8224 20.0013 56.1148C19.3747 56.4072 18.6302 56.136 18.3378 55.5088C18.1971 55.208 18.1821 54.8631 18.2959 54.5512C18.4092 54.2392 18.6424 53.9848 18.9432 53.8441C19.5699 53.5517 20.3143 53.8229 20.6068 54.4502L20.6068 54.4502Z" fill="#818181"/>
<path d="M69.6885 32.5616C69.3146 32.5778 68.9675 32.7597 68.7426 33.0588C68.5177 33.3574 68.4385 33.7413 68.5261 34.1046C69.3587 37.7212 67.8364 41.464 64.7125 43.4646C61.5892 45.4652 57.5585 45.2861 54.6249 43.0148H54.6254C54.3632 42.8117 54.0306 42.7208 53.7013 42.7626C53.3726 42.8039 53.073 42.9747 52.8698 43.237C52.4463 43.7833 52.5462 44.569 53.0919 44.9925C56.8542 47.9044 62.0546 48.1343 66.0602 45.569C70.0663 43.0031 72.03 38.185 70.9625 33.5482V33.5477C70.8347 32.9528 70.2967 32.5359 69.6885 32.5616L69.6885 32.5616Z" fill="#818181"/>
<path d="M65.4585 16.8787C64.7699 16.9027 64.2308 17.4791 64.2526 18.1677L64.3112 21.4976C64.3212 22.0975 64.7554 22.6053 65.3464 22.7085C66.8118 22.9675 67.9211 24.141 68.1002 25.6137C68.2794 27.0864 67.483 28.4893 66.1225 29.0903C64.762 29.6913 63.1778 29.3353 62.2068 28.2114C61.993 27.9502 61.6828 27.7867 61.3463 27.7577C61.0098 27.7287 60.6766 27.8375 60.421 28.0579C60.166 28.2789 60.0109 28.5936 59.9914 28.9307C59.9718 29.2678 60.089 29.5981 60.3172 29.847C62.0008 31.7952 64.7721 32.4156 67.1287 31.3749C69.4853 30.3342 70.8916 27.867 70.5807 25.3107C70.319 23.1594 68.7599 21.5774 66.8017 20.7945L66.7532 18.1238H66.7526C66.7515 17.7856 66.6131 17.462 66.3692 17.2276C66.1254 16.9927 65.7967 16.8671 65.4585 16.8788L65.4585 16.8787Z" fill="#818181"/>
<path d="M65.6258 11.2501C63.5693 11.2501 61.8757 12.9436 61.8757 15.0001C61.8757 17.0565 63.5693 18.7501 65.6258 18.7501C67.6822 18.7501 69.3758 17.0565 69.3758 15.0001C69.3758 12.9442 67.6822 11.2501 65.6258 11.2501ZM65.6258 13.7501C66.3311 13.7501 66.8758 14.2953 66.8758 15.0001C66.8758 15.7049 66.3311 16.2501 65.6258 16.2501C64.9204 16.2501 64.3757 15.706 64.3757 15.0001C64.3757 14.2953 64.9204 13.7501 65.6258 13.7501Z" fill="#818181"/>
<path fill-rule="evenodd" clip-rule="evenodd" d="M64.3757 6.25003V13.7495H66.8757V6.25003H64.3757Z" fill="#818181"/>
<path fill-rule="evenodd" clip-rule="evenodd" d="M64.3757 0C62.6647 0 61.2507 1.41406 61.2507 3.12502V4.37502C61.2507 6.08603 62.6648 7.50004 64.3757 7.50004H80.0001V5.00002H64.3757C64.0158 5.00002 63.7507 4.73551 63.7507 4.37558V3.12557C63.7507 2.76564 64.0158 2.50113 64.3757 2.50113H80.0001V0.0011139L64.3757 0Z" fill="#818181"/>
</svg>
