<svg width="68" height="64" viewBox="0 0 68 64" fill="none" xmlns="http://www.w3.org/2000/svg">
<mask id="path-1-inside-1_393_145" fill="white">
<path fill-rule="evenodd" clip-rule="evenodd" d="M8.71317 6.56418L11.5045 0.906021C11.7766 0.351414 12.3402 0 12.9518 0H25.9045C26.5166 0 27.0802 0.351414 27.3518 0.906021L30.1431 6.56418H37.2412C37.7658 6.56418 38.2357 6.82002 38.5299 7.2138L38.5332 7.21723C38.7371 7.4931 38.8602 7.83421 38.8602 8.2051V14.7693C38.8602 15.6754 38.1352 16.4102 37.2413 16.4102H34C34 17.6705 33.5336 18.8227 32.7628 19.6926H42.0953V14.7692C42.0953 13.8632 42.8209 13.1283 43.7142 13.1283H50.1906C51.0845 13.1283 51.8095 13.8632 51.8095 14.7692C51.8095 15.6752 51.0845 16.4101 50.1906 16.4101H45.3332V19.6924H56.6669C56.9582 19.6924 57.2304 19.7708 57.4631 19.9053C57.6997 20.0398 57.9069 20.2373 58.056 20.4897L67.7702 36.8999C67.7702 36.9034 67.7736 36.9068 67.7736 36.9097C67.8447 37.0281 67.8995 37.1592 67.9385 37.2971L67.9452 37.3137C67.9808 37.4511 68 37.5925 68 37.7338V37.7436V57.4359C68 57.971 67.7476 58.4466 67.3523 58.7488C67.0835 58.9554 66.747 59.0768 66.381 59.0768H59.9047C59.8369 59.0768 59.7686 59.0739 59.7042 59.0636C58.9882 61.8995 56.4499 64 53.4283 64C50.4073 64 47.8685 61.8995 47.153 59.0636C47.0881 59.0739 47.0203 59.0768 46.9526 59.0768H33.9998C33.9321 59.0768 33.8637 59.0739 33.7988 59.0636C33.0834 61.8995 30.5445 64 27.5235 64C24.5025 64 21.9636 61.8995 21.2482 59.0636C21.1833 59.0739 21.1155 59.0768 21.0472 59.0768H17.8094C17.7416 59.0768 17.6733 59.0739 17.6084 59.0636C16.8929 61.8995 14.354 64 11.3331 64C8.31207 64 5.77318 61.8995 5.05776 59.0636C4.99283 59.0739 4.92506 59.0768 4.85674 59.0768H1.61891C0.725021 59.0768 0 58.3419 0 57.4359V47.5899C0 46.6839 0.725049 45.949 1.61891 45.949H6.09734C5.32656 45.079 4.85674 43.9269 4.85674 42.6667H1.61891C0.725021 42.6667 0 41.9318 0 41.0258V34.4913V34.4615C0 33.5561 0.725049 32.8206 1.61891 32.8206H8.71357L11.5048 27.1625C11.7804 26.6079 12.3406 26.2565 12.9522 26.2565H25.9049C26.5204 26.2565 27.0806 26.6079 27.3556 27.1625L30.1469 32.8206H37.2382C37.7662 32.8206 38.2326 33.0765 38.5302 33.4708L38.5336 33.4737C38.7374 33.7496 38.8577 34.0907 38.8577 34.4616V41.0258C38.8577 41.9318 38.1321 42.6667 37.2382 42.6667H34.0004C34.0004 43.927 33.5339 45.0791 32.7632 45.949H42.0957V22.9747H1.61928C0.725387 22.9747 0.000367264 22.2392 0.000367264 21.3338C0.000367264 20.4278 0.725416 19.6929 1.61928 19.6929H6.09771C5.32692 18.823 4.85711 17.6708 4.85711 16.4106H1.61928C0.725387 16.4106 0.000367264 15.6757 0.000367264 14.7697V8.23521V8.20545C0.000367264 7.3 0.725416 6.56457 1.61928 6.56457L8.71317 6.56418ZM27.5231 54.1539C29.3109 54.1539 30.7615 55.6242 30.7615 57.4356C30.7615 59.2477 29.3109 60.718 27.5231 60.718C25.736 60.718 24.2853 59.2477 24.2853 57.4356C24.2853 55.6242 25.736 54.1539 27.5231 54.1539ZM53.4281 54.1539C55.2158 54.1539 56.6665 55.6242 56.6665 57.4356C56.6665 59.2477 55.2158 60.718 53.4281 60.718C51.6409 60.718 50.1902 59.2477 50.1902 57.4356C50.1902 55.6242 51.6409 54.1539 53.4281 54.1539ZM11.3326 54.1539C13.1203 54.1539 14.571 55.6242 14.571 57.4356C14.571 59.2477 13.1203 60.718 11.3326 60.718C9.54539 60.718 8.09475 59.2477 8.09475 57.4356C8.09475 55.6242 9.54539 54.1539 11.3326 54.1539ZM64.7615 55.7948V38.1962L55.7497 22.9743H45.3325V47.5896C45.3325 47.7339 45.3133 47.8718 45.2811 48.0063L45.2777 48.0098C45.0965 48.712 44.4651 49.2306 43.7136 49.2306H3.23715V55.7948H4.85606C4.92439 55.7948 4.99215 55.7982 5.05709 55.808C5.77254 52.9721 8.31139 50.8716 11.3324 50.8716C14.3534 50.8716 16.8923 52.9721 17.6077 55.808C17.6726 55.7982 17.7409 55.7948 17.8087 55.7948H21.0465C21.1149 55.7948 21.1826 55.7982 21.2476 55.808C21.963 52.9721 24.5019 50.8716 27.5228 50.8716C30.5438 50.8716 33.0827 52.9721 33.7981 55.808C33.8631 55.7982 33.9314 55.7948 33.9992 55.7948H46.9519C47.0197 55.7948 47.0874 55.7982 47.1524 55.808C47.8678 52.9721 50.4067 50.8716 53.4277 50.8716C56.4492 50.8716 58.9875 52.9721 59.7035 55.808C59.7679 55.7982 59.8362 55.7948 59.904 55.7948L64.7615 55.7948ZM48.5709 27.8974C48.5709 26.9913 49.2959 26.2559 50.1898 26.2559H53.4276C54.0335 26.2559 54.5609 26.5941 54.8399 27.0932L61.306 38.5635C61.3613 38.6591 61.4031 38.7576 61.4387 38.8623L61.4421 38.8692C61.5003 39.046 61.5262 39.2297 61.5228 39.4141V47.5894C61.5228 48.492 60.804 49.224 59.9135 49.2303H50.1896C49.2957 49.2303 48.5707 48.4954 48.5707 47.5894L48.5709 27.8974ZM14.5707 42.6666C14.5707 43.9269 14.1043 45.079 13.3335 45.9489H25.525C24.7542 45.0789 24.2849 43.9268 24.2849 42.6666H14.5707ZM51.809 29.5387V45.9489H58.2854V39.8214L52.4889 29.5387H51.809ZM29.1422 41.0255C30.0361 41.0255 30.7617 41.761 30.7617 42.6664C30.7617 43.5724 30.0361 44.3079 29.1422 44.3079C28.2489 44.3079 27.5233 43.5724 27.5233 42.6664C27.5233 41.761 28.2489 41.0255 29.1422 41.0255ZM9.71351 41.0255C10.6074 41.0255 11.3324 41.761 11.3324 42.6664C11.3324 43.5724 10.6074 44.3079 9.71351 44.3079C8.81965 44.3079 8.0946 43.5724 8.0946 42.6664C8.0946 41.761 8.81965 41.0255 9.71351 41.0255ZM27.6749 35.1539L24.9029 29.5387H13.9549L11.1636 35.1968C10.9987 35.5282 10.7361 35.7812 10.4318 35.9317C10.2471 36.0239 10.0433 36.0828 9.82642 36.0994C9.78067 36.1028 9.7355 36.1028 9.69032 36.1028H3.2365V39.3846H6.09602C6.98313 38.3773 8.27856 37.7437 9.71288 37.7437C11.1506 37.7437 12.4426 38.3773 13.3331 39.3846H25.5246C26.4117 38.3773 27.7071 37.7437 29.1414 37.7437C30.5791 37.7437 31.8711 38.3773 32.7616 39.3846H35.6178V36.1028H29.1674H29.0703C28.7372 36.0862 28.4294 35.9678 28.1798 35.7812C28.0539 35.6856 27.9404 35.574 27.8466 35.4429C27.7783 35.3542 27.7202 35.2558 27.675 35.1539L27.6749 35.1539ZM14.5704 16.4096C14.5704 17.6699 14.104 18.8221 13.3332 19.6919H25.5247C24.7539 18.822 24.2846 17.6698 24.2846 16.4096H14.5704ZM9.71294 14.7687C10.6068 14.7687 11.3318 15.5042 11.3318 16.4096C11.3318 17.3156 10.6068 18.0505 9.71294 18.0505C8.82242 18.0505 8.09402 17.3156 8.09402 16.4096C8.09402 15.5041 8.82247 14.7687 9.71294 14.7687ZM29.1416 14.7687C30.0355 14.7687 30.7611 15.5042 30.7611 16.4096C30.7611 17.3156 30.0355 18.0505 29.1416 18.0505C28.2511 18.0505 27.5227 17.3156 27.5227 16.4096C27.5227 15.5041 28.2512 14.7687 29.1416 14.7687ZM28.5589 9.73385C28.1964 9.59305 27.8824 9.31718 27.6943 8.94001L24.9031 3.28184H13.9516L11.1638 8.94001C11.0147 9.23878 10.7882 9.47457 10.5195 9.62911C10.3055 9.75044 10.066 9.82943 9.80684 9.84259C9.76788 9.84545 9.72948 9.84545 9.69052 9.84545H3.23669V13.1278H6.09621C6.98672 12.1199 8.27875 11.4869 9.71307 11.4869C11.1507 11.4869 12.4428 12.1199 13.3333 13.1278H25.5248C26.4153 12.1199 27.7073 11.4869 29.1416 11.4869C30.5793 11.4869 31.8713 12.1199 32.7618 13.1278H35.6213V9.84545H29.1647C29.1032 9.84545 29.0416 9.84259 28.9801 9.83572C28.8344 9.82255 28.6915 9.7865 28.5588 9.73384L28.5589 9.73385Z"/>
</mask>
<path fill-rule="evenodd" clip-rule="evenodd" d="M8.71317 6.56418L11.5045 0.906021C11.7766 0.351414 12.3402 0 12.9518 0H25.9045C26.5166 0 27.0802 0.351414 27.3518 0.906021L30.1431 6.56418H37.2412C37.7658 6.56418 38.2357 6.82002 38.5299 7.2138L38.5332 7.21723C38.7371 7.4931 38.8602 7.83421 38.8602 8.2051V14.7693C38.8602 15.6754 38.1352 16.4102 37.2413 16.4102H34C34 17.6705 33.5336 18.8227 32.7628 19.6926H42.0953V14.7692C42.0953 13.8632 42.8209 13.1283 43.7142 13.1283H50.1906C51.0845 13.1283 51.8095 13.8632 51.8095 14.7692C51.8095 15.6752 51.0845 16.4101 50.1906 16.4101H45.3332V19.6924H56.6669C56.9582 19.6924 57.2304 19.7708 57.4631 19.9053C57.6997 20.0398 57.9069 20.2373 58.056 20.4897L67.7702 36.8999C67.7702 36.9034 67.7736 36.9068 67.7736 36.9097C67.8447 37.0281 67.8995 37.1592 67.9385 37.2971L67.9452 37.3137C67.9808 37.4511 68 37.5925 68 37.7338V37.7436V57.4359C68 57.971 67.7476 58.4466 67.3523 58.7488C67.0835 58.9554 66.747 59.0768 66.381 59.0768H59.9047C59.8369 59.0768 59.7686 59.0739 59.7042 59.0636C58.9882 61.8995 56.4499 64 53.4283 64C50.4073 64 47.8685 61.8995 47.153 59.0636C47.0881 59.0739 47.0203 59.0768 46.9526 59.0768H33.9998C33.9321 59.0768 33.8637 59.0739 33.7988 59.0636C33.0834 61.8995 30.5445 64 27.5235 64C24.5025 64 21.9636 61.8995 21.2482 59.0636C21.1833 59.0739 21.1155 59.0768 21.0472 59.0768H17.8094C17.7416 59.0768 17.6733 59.0739 17.6084 59.0636C16.8929 61.8995 14.354 64 11.3331 64C8.31207 64 5.77318 61.8995 5.05776 59.0636C4.99283 59.0739 4.92506 59.0768 4.85674 59.0768H1.61891C0.725021 59.0768 0 58.3419 0 57.4359V47.5899C0 46.6839 0.725049 45.949 1.61891 45.949H6.09734C5.32656 45.079 4.85674 43.9269 4.85674 42.6667H1.61891C0.725021 42.6667 0 41.9318 0 41.0258V34.4913V34.4615C0 33.5561 0.725049 32.8206 1.61891 32.8206H8.71357L11.5048 27.1625C11.7804 26.6079 12.3406 26.2565 12.9522 26.2565H25.9049C26.5204 26.2565 27.0806 26.6079 27.3556 27.1625L30.1469 32.8206H37.2382C37.7662 32.8206 38.2326 33.0765 38.5302 33.4708L38.5336 33.4737C38.7374 33.7496 38.8577 34.0907 38.8577 34.4616V41.0258C38.8577 41.9318 38.1321 42.6667 37.2382 42.6667H34.0004C34.0004 43.927 33.5339 45.0791 32.7632 45.949H42.0957V22.9747H1.61928C0.725387 22.9747 0.000367264 22.2392 0.000367264 21.3338C0.000367264 20.4278 0.725416 19.6929 1.61928 19.6929H6.09771C5.32692 18.823 4.85711 17.6708 4.85711 16.4106H1.61928C0.725387 16.4106 0.000367264 15.6757 0.000367264 14.7697V8.23521V8.20545C0.000367264 7.3 0.725416 6.56457 1.61928 6.56457L8.71317 6.56418ZM27.5231 54.1539C29.3109 54.1539 30.7615 55.6242 30.7615 57.4356C30.7615 59.2477 29.3109 60.718 27.5231 60.718C25.736 60.718 24.2853 59.2477 24.2853 57.4356C24.2853 55.6242 25.736 54.1539 27.5231 54.1539ZM53.4281 54.1539C55.2158 54.1539 56.6665 55.6242 56.6665 57.4356C56.6665 59.2477 55.2158 60.718 53.4281 60.718C51.6409 60.718 50.1902 59.2477 50.1902 57.4356C50.1902 55.6242 51.6409 54.1539 53.4281 54.1539ZM11.3326 54.1539C13.1203 54.1539 14.571 55.6242 14.571 57.4356C14.571 59.2477 13.1203 60.718 11.3326 60.718C9.54539 60.718 8.09475 59.2477 8.09475 57.4356C8.09475 55.6242 9.54539 54.1539 11.3326 54.1539ZM64.7615 55.7948V38.1962L55.7497 22.9743H45.3325V47.5896C45.3325 47.7339 45.3133 47.8718 45.2811 48.0063L45.2777 48.0098C45.0965 48.712 44.4651 49.2306 43.7136 49.2306H3.23715V55.7948H4.85606C4.92439 55.7948 4.99215 55.7982 5.05709 55.808C5.77254 52.9721 8.31139 50.8716 11.3324 50.8716C14.3534 50.8716 16.8923 52.9721 17.6077 55.808C17.6726 55.7982 17.7409 55.7948 17.8087 55.7948H21.0465C21.1149 55.7948 21.1826 55.7982 21.2476 55.808C21.963 52.9721 24.5019 50.8716 27.5228 50.8716C30.5438 50.8716 33.0827 52.9721 33.7981 55.808C33.8631 55.7982 33.9314 55.7948 33.9992 55.7948H46.9519C47.0197 55.7948 47.0874 55.7982 47.1524 55.808C47.8678 52.9721 50.4067 50.8716 53.4277 50.8716C56.4492 50.8716 58.9875 52.9721 59.7035 55.808C59.7679 55.7982 59.8362 55.7948 59.904 55.7948L64.7615 55.7948ZM48.5709 27.8974C48.5709 26.9913 49.2959 26.2559 50.1898 26.2559H53.4276C54.0335 26.2559 54.5609 26.5941 54.8399 27.0932L61.306 38.5635C61.3613 38.6591 61.4031 38.7576 61.4387 38.8623L61.4421 38.8692C61.5003 39.046 61.5262 39.2297 61.5228 39.4141V47.5894C61.5228 48.492 60.804 49.224 59.9135 49.2303H50.1896C49.2957 49.2303 48.5707 48.4954 48.5707 47.5894L48.5709 27.8974ZM14.5707 42.6666C14.5707 43.9269 14.1043 45.079 13.3335 45.9489H25.525C24.7542 45.0789 24.2849 43.9268 24.2849 42.6666H14.5707ZM51.809 29.5387V45.9489H58.2854V39.8214L52.4889 29.5387H51.809ZM29.1422 41.0255C30.0361 41.0255 30.7617 41.761 30.7617 42.6664C30.7617 43.5724 30.0361 44.3079 29.1422 44.3079C28.2489 44.3079 27.5233 43.5724 27.5233 42.6664C27.5233 41.761 28.2489 41.0255 29.1422 41.0255ZM9.71351 41.0255C10.6074 41.0255 11.3324 41.761 11.3324 42.6664C11.3324 43.5724 10.6074 44.3079 9.71351 44.3079C8.81965 44.3079 8.0946 43.5724 8.0946 42.6664C8.0946 41.761 8.81965 41.0255 9.71351 41.0255ZM27.6749 35.1539L24.9029 29.5387H13.9549L11.1636 35.1968C10.9987 35.5282 10.7361 35.7812 10.4318 35.9317C10.2471 36.0239 10.0433 36.0828 9.82642 36.0994C9.78067 36.1028 9.7355 36.1028 9.69032 36.1028H3.2365V39.3846H6.09602C6.98313 38.3773 8.27856 37.7437 9.71288 37.7437C11.1506 37.7437 12.4426 38.3773 13.3331 39.3846H25.5246C26.4117 38.3773 27.7071 37.7437 29.1414 37.7437C30.5791 37.7437 31.8711 38.3773 32.7616 39.3846H35.6178V36.1028H29.1674H29.0703C28.7372 36.0862 28.4294 35.9678 28.1798 35.7812C28.0539 35.6856 27.9404 35.574 27.8466 35.4429C27.7783 35.3542 27.7202 35.2558 27.675 35.1539L27.6749 35.1539ZM14.5704 16.4096C14.5704 17.6699 14.104 18.8221 13.3332 19.6919H25.5247C24.7539 18.822 24.2846 17.6698 24.2846 16.4096H14.5704ZM9.71294 14.7687C10.6068 14.7687 11.3318 15.5042 11.3318 16.4096C11.3318 17.3156 10.6068 18.0505 9.71294 18.0505C8.82242 18.0505 8.09402 17.3156 8.09402 16.4096C8.09402 15.5041 8.82247 14.7687 9.71294 14.7687ZM29.1416 14.7687C30.0355 14.7687 30.7611 15.5042 30.7611 16.4096C30.7611 17.3156 30.0355 18.0505 29.1416 18.0505C28.2511 18.0505 27.5227 17.3156 27.5227 16.4096C27.5227 15.5041 28.2512 14.7687 29.1416 14.7687ZM28.5589 9.73385C28.1964 9.59305 27.8824 9.31718 27.6943 8.94001L24.9031 3.28184H13.9516L11.1638 8.94001C11.0147 9.23878 10.7882 9.47457 10.5195 9.62911C10.3055 9.75044 10.066 9.82943 9.80684 9.84259C9.76788 9.84545 9.72948 9.84545 9.69052 9.84545H3.23669V13.1278H6.09621C6.98672 12.1199 8.27875 11.4869 9.71307 11.4869C11.1507 11.4869 12.4428 12.1199 13.3333 13.1278H25.5248C26.4153 12.1199 27.7073 11.4869 29.1416 11.4869C30.5793 11.4869 31.8713 12.1199 32.7618 13.1278H35.6213V9.84545H29.1647C29.1032 9.84545 29.0416 9.84259 28.9801 9.83572C28.8344 9.82255 28.6915 9.7865 28.5588 9.73384L28.5589 9.73385Z" fill="#818181" stroke="#E4EAE4" mask="url(#path-1-inside-1_393_145)"/>
</svg>
