<svg width="61" height="46" viewBox="0 0 61 46" fill="none" xmlns="http://www.w3.org/2000/svg">
<path d="M14.298 6.10352e-05H4.76599C3.50254 0.00176317 2.29105 0.504319 1.39744 1.3975C0.504247 2.29112 0.00174299 3.5026 0 4.76605V40.9876C0.00170214 42.251 0.504258 43.4625 1.39744 44.3561C2.29106 45.2493 3.50254 45.7518 4.76599 45.7535H14.298C15.5614 45.7518 16.7729 45.2493 17.6665 44.3561C18.5597 43.4625 19.0622 42.251 19.0639 40.9876V4.76605C19.0622 3.5026 18.5597 2.29111 17.6665 1.3975C16.7729 0.504308 15.5614 0.00180402 14.298 6.10352e-05ZM10.4852 1.90646V43.8471H8.57878V1.90646H10.4852ZM1.90639 40.9876V39.4756L4.09189 41.6611L5.43954 40.3135L1.90629 36.7802V34.7095L4.09178 36.895L5.43944 35.5474L1.90618 32.0141V29.9434L4.09167 32.1289L5.43933 30.7813L1.90607 27.248V25.1773L4.09156 27.3628L5.43922 26.0152L1.90596 22.4819V20.4112L4.09145 22.5967L5.43911 21.2491L1.90585 17.7158V15.6451L4.09134 17.8306L5.439 16.483L1.90574 12.9497V10.879L4.09123 13.0645L5.43889 11.7169L1.90563 8.18361V6.11294L4.09112 8.29843L5.43878 6.95078L2.13451 3.64607C2.35366 3.12989 2.72047 2.6899 3.18814 2.38055C3.6558 2.07075 4.20431 1.90565 4.76521 1.90565H6.67161V43.8463H4.76521C4.00692 43.8463 3.27921 43.5451 2.74313 43.0089C2.20705 42.4727 1.90568 41.745 1.90568 40.9868L1.90639 40.9876ZM14.298 43.8471H12.3916V1.90646H14.298C14.8588 1.90646 15.4074 2.07156 15.875 2.38136C16.3427 2.69071 16.7095 3.13072 16.9287 3.64687L13.624 6.95158L14.9716 8.29924L17.1575 6.11375V8.18399L13.6239 11.7177L14.9715 13.0653L17.1574 10.8798V12.9501L13.6237 16.4838L14.9714 17.8314L17.1573 15.6459V17.7162L13.6236 21.2499L14.9713 22.5975L17.1572 20.412V22.4823L13.6235 26.016L14.9712 27.3636L17.1571 25.1781V27.2484L13.6234 30.7821L14.9711 32.1297L17.157 29.9442V32.0145L13.6233 35.5482L14.971 36.8958L17.1569 34.7103V36.7806L13.6232 40.3143L14.9709 41.6619L17.1568 39.4764V40.9884C17.1568 41.7467 16.8555 42.4744 16.3193 43.0104C15.7832 43.5465 15.0554 43.8479 14.2972 43.8479L14.298 43.8471Z" fill="#818181"/>
<path d="M38.1279 35.2684C41.4143 35.2684 44.5663 33.9629 46.8901 31.639C49.214 29.3152 50.5195 26.1632 50.5195 22.8768C50.5195 19.5904 49.214 16.4384 46.8901 14.1146C44.5663 11.7907 41.4143 10.4852 38.1279 10.4852C34.8415 10.4852 31.6895 11.7907 29.3657 14.1146C27.0418 16.4384 25.7363 19.5904 25.7363 22.8768C25.7402 26.1619 27.0469 29.3117 29.3699 31.6348C31.6929 33.9579 34.8427 35.2646 38.1279 35.2684ZM38.1279 12.3916C40.9087 12.3916 43.5756 13.4964 45.542 15.4627C47.5084 17.4291 48.6131 20.0959 48.6131 22.8768C48.6131 25.6577 47.5083 28.3245 45.542 30.2909C43.5756 32.2573 40.9088 33.362 38.1279 33.362C35.347 33.362 32.6802 32.2572 30.7138 30.2909C28.7473 28.3245 27.6427 25.6577 27.6427 22.8768C27.6461 20.0967 28.7517 17.4321 30.7172 15.4661C32.6832 13.5006 35.3479 12.3951 38.1279 12.3916Z" fill="#818181"/>
<path d="M38.1278 31.4556C40.4032 31.4556 42.5853 30.5518 44.1939 28.9429C45.8029 27.3343 46.7066 25.1522 46.7066 22.8768C46.7066 20.6014 45.8028 18.4193 44.1939 16.8108C42.5853 15.2018 40.4032 14.298 38.1278 14.298C35.8525 14.298 33.6704 15.2019 32.0618 16.8108C30.4528 18.4193 29.5491 20.6014 29.5491 22.8768C29.5516 25.1513 30.4563 27.3318 32.0644 28.9402C33.673 30.5484 35.8534 31.453 38.1278 31.4556ZM32.8929 27.0003L36.2822 25.0432V25.0437C36.5461 25.2688 36.8482 25.4441 37.1746 25.5611V29.4692C35.4836 29.2258 33.9507 28.3419 32.8928 27.0003L32.8929 27.0003ZM31.4555 22.8768C31.4559 22.0292 31.6193 21.1892 31.9368 20.4032L35.3205 22.3573C35.2508 22.7003 35.2508 23.0535 35.3205 23.3965L31.9368 25.3506C31.6193 24.5646 31.4559 23.7246 31.4555 22.8769V22.8768ZM38.1278 21.9236C38.5134 21.9236 38.861 22.156 39.0083 22.5121C39.1559 22.8683 39.0747 23.2781 38.8019 23.5509C38.5291 23.8236 38.1193 23.9049 37.7632 23.7572C37.407 23.61 37.1747 23.2623 37.1747 22.8768C37.1747 22.3504 37.6015 21.9236 38.1278 21.9236ZM39.081 29.473V25.5649C39.4074 25.4479 39.7096 25.2726 39.9734 25.0471L43.3627 27.0041C42.3049 28.3458 40.7721 29.2293 39.081 29.4731L39.081 29.473ZM44.8002 22.8768C44.8019 23.7258 44.6402 24.5675 44.3236 25.3551L40.9398 23.401C41.0096 23.058 41.0096 22.7048 40.9398 22.3619L44.3236 20.4077C44.639 21.1929 44.8007 22.0307 44.8002 22.8767V22.8768ZM43.3628 18.7533L39.9735 20.7104V20.71C39.7096 20.4849 39.4075 20.3095 39.0811 20.1925V16.2844C40.7721 16.5278 42.305 17.4117 43.3629 18.7533L43.3628 18.7533ZM37.1747 16.2806V20.1887C36.8483 20.3057 36.5461 20.481 36.2823 20.7066L32.893 18.7495C33.9508 17.4078 35.4836 16.5244 37.1747 16.2806L37.1747 16.2806Z" fill="#818181"/>
<path d="M38.1279 5.63579e-05C34.6853 -0.00760321 31.2857 0.765588 28.1849 2.26093C25.084 3.75631 22.3623 5.93537 20.2249 8.63417C19.8781 9.06865 19.45 9.66738 19.45 9.66738C19.2262 9.98184 19.2138 10.4001 19.4189 10.7274C19.6245 11.0542 20.0066 11.2253 20.387 11.1602L24.3721 10.4768L24.05 8.59803L22.5305 8.85845L22.5309 8.85803C23.359 7.93845 24.2662 7.09336 25.2429 6.33331L28.8489 6.84991L29.1187 4.96356L27.5804 4.74228H27.58C28.6519 4.1193 29.7779 3.59376 30.9438 3.1725L34.2209 4.77377L35.0587 3.05801L33.6681 2.38312C35.0081 2.09631 36.3727 1.94098 37.7429 1.91886L40.3166 4.49249L41.6642 3.14483L40.5796 2.06015C41.8068 2.20228 43.0192 2.45377 44.2017 2.81122L45.8612 6.05209L47.5578 5.18357L46.8574 3.81292C47.9821 4.32995 49.0587 4.94532 50.0744 5.65254L50.6548 9.23384L52.5365 8.92873L52.2935 7.4351C53.2033 8.27085 54.0378 9.18451 54.788 10.1661L54.2369 13.7461L56.1212 14.0321L56.351 12.524C56.9629 13.5955 57.4782 14.7188 57.8914 15.8814L56.2625 19.1368L57.9676 19.99L58.6587 18.6095C58.9072 19.8236 59.0484 21.0572 59.0812 22.2964L56.5344 24.89L57.8957 26.2245L58.9727 25.1275H58.9723C58.8399 26.3578 58.5974 27.5739 58.248 28.7611L55.0241 30.4483L55.9088 32.1373L57.2641 31.4271C56.7594 32.5556 56.1555 33.6373 55.4599 34.6595L51.8808 35.2752L52.2029 37.153L53.7033 36.8956C52.876 37.8135 51.9701 38.6573 50.996 39.4177L47.4082 38.9028L47.1385 40.7909L48.6466 41.0071L48.6462 41.0075C47.5827 41.6288 46.4661 42.1551 45.31 42.5803L42.0359 40.9791L41.198 42.6948L42.5793 43.3706C41.2427 43.6591 39.8809 43.8165 38.5138 43.8404L35.9401 41.2667L34.5925 42.6144L35.6832 43.7051H35.6827C34.4559 43.5621 33.2435 43.311 32.0606 42.954L30.398 39.7046L28.6992 40.574L29.4035 41.9506L29.4043 41.9502C28.2788 41.4366 27.2013 40.8229 26.1851 40.1174L25.6009 36.5174L23.7192 36.8225L23.9643 38.3383V38.3378C23.1541 37.5961 22.4022 36.7931 21.7158 35.9357L20.2251 37.1233H20.2246C23.4528 41.179 27.9625 44.0182 33.0149 45.1757C38.0677 46.3336 43.3635 45.7408 48.0351 43.4948C52.7067 41.2489 56.4773 37.4828 58.7288 32.8139C60.9808 28.145 61.5799 22.85 60.4284 17.7958C59.2774 12.7417 56.4438 8.22857 52.3918 4.99576C48.3404 1.76251 43.3105 0.00122035 38.1266 0.00045779L38.1279 5.63579e-05Z" fill="#818181"/>
</svg>
