<svg width="74" height="51" viewBox="0 0 74 51" fill="none" xmlns="http://www.w3.org/2000/svg">
<path d="M73.0347 7.6932H70.8826V0.965888C70.8826 0.440586 70.4589 0 69.9167 0H62.2235C61.6982 0 61.2576 0.423637 61.2576 0.965888V7.6932H58.6142V5.25308C58.6142 4.72778 58.1906 4.28719 57.6483 4.28719H52.6325C52.1072 4.28719 51.6666 4.71083 51.6666 5.25308V7.6932H49.4298V5.25308C49.4298 4.72778 49.0061 4.28719 48.4639 4.28719H43.4481C42.9228 4.28719 42.4822 4.71083 42.4822 5.25308V7.6932H40.2453V5.25308C40.2453 4.72778 39.8217 4.28719 39.2794 4.28719H34.2805C33.7552 4.28719 33.3146 4.71083 33.3146 5.25308V7.6932H31.0609V5.25308C31.0609 4.72778 30.6372 4.28719 30.095 4.28719H25.0792C24.5539 4.28719 24.1133 4.71083 24.1133 5.25308V7.6932H21.8764V5.25308C21.8764 4.72778 21.4528 4.28719 20.9105 4.28719H15.9286C15.4033 4.28719 14.9627 4.71083 14.9627 5.25308V7.6932H12.1836V0.965888C12.1836 0.440586 11.76 0 11.2177 0H3.49067C2.96537 0 2.52478 0.423637 2.52478 0.965888V7.6932H0.965888C0.440586 7.6932 0 8.11684 0 8.65909V49.819C0 50.3443 0.423637 50.7849 0.965888 50.7849H73.0341C73.5594 50.7849 74 50.3613 74 49.819V8.64205C74 8.11675 73.5594 7.69311 73.0341 7.69311L73.0347 7.6932ZM63.1894 1.93171H68.9339V7.6932H63.1894V1.93171ZM53.5984 6.20186H56.6655V7.6761H53.5984V6.20186ZM44.4141 6.20186H47.4812V7.6761H44.4141V6.20186ZM35.2297 6.20186H38.2968V7.6761H35.2297V6.20186ZM26.0454 6.20186H29.1125V7.6761H26.0454V6.20186ZM16.8611 6.20186H19.9282V7.6761H16.8611V6.20186ZM4.45715 1.93171H10.2016V7.6932H4.45715V1.93171ZM72.0696 48.8364H1.91631V9.62548H72.0696V48.8364Z" fill="#818181"/>
<path d="M44.2101 14.2172C44.1931 14.2003 44.1931 14.2003 44.2101 14.2172C44.1931 14.2003 44.1762 14.2003 44.1762 14.2003C44.1423 14.1833 44.1253 14.1664 44.0914 14.1495C44.0575 14.1325 44.0067 14.1325 43.9728 14.1156C43.905 14.0817 43.8373 14.0647 43.7695 14.0478H43.617C43.5322 14.0478 43.4814 14.0478 43.3967 14.0647C43.3458 14.0817 43.3119 14.0986 43.2611 14.1156C43.1764 14.1495 43.1255 14.1833 43.0578 14.2342C43.0069 14.2681 42.973 14.302 42.9391 14.3528C42.9053 14.3867 42.8544 14.4206 42.8205 14.4714L36.7541 23.1643C36.5508 23.4693 36.5169 23.8591 36.6864 24.1641C36.8389 24.486 37.1778 24.6894 37.5506 24.6894H41.126L34.0259 33.1451L36.5339 26.672C36.6525 26.367 36.6186 26.0281 36.4153 25.7739C36.2458 25.5028 35.9408 25.3503 35.6189 25.3503H32.9584L38.7368 13.8105C38.974 13.3361 38.7877 12.7599 38.3132 12.5227C38.1776 12.4549 38.059 12.421 37.9234 12.421H37.9065C33.7718 12.0991 29.7727 13.4208 26.6379 16.1152C23.486 18.8095 21.6052 22.5713 21.2833 26.689C20.6393 35.1787 27.0616 42.6343 35.585 43.2447C35.9917 43.2786 36.3645 43.2956 36.7712 43.2956C40.4822 43.2956 44.0237 41.9908 46.8707 39.5506C50.0226 36.8563 51.9034 33.0944 52.2254 28.9936C52.6829 22.8764 49.548 17.132 44.2103 14.2173L44.2101 14.2172ZM50.3104 28.7901C50.0392 32.3826 48.3786 35.6699 45.6334 38.0253C42.8882 40.3807 39.3806 41.4991 35.7712 41.2619C28.3153 40.7027 22.6894 34.1958 23.2487 26.7567C23.5198 23.1642 25.1805 19.8769 27.9256 17.5216C30.281 15.4881 33.2465 14.4205 36.3305 14.3359L30.569 25.8587C30.4335 26.1638 30.4335 26.5196 30.6199 26.8077C30.7893 27.0958 31.0943 27.2652 31.4332 27.2652H34.2632L30.1794 37.8222C30.0099 38.2628 30.1794 38.7711 30.603 39.0084C30.7556 39.11 30.925 39.1439 31.0945 39.1439C31.3656 39.1439 31.6367 39.0084 31.8231 38.7881L44.0238 24.2998C44.261 24.0117 44.3288 23.605 44.1593 23.2661C44.0068 22.9272 43.6679 22.7069 43.2782 22.7069H39.4824L43.956 16.3015C48.1753 18.9449 50.6833 23.7406 50.3105 28.7902L50.3104 28.7901Z" fill="#818181"/>
<path d="M11.184 14.5736H8.7099V12.1166C8.7099 11.5913 8.28626 11.1507 7.74401 11.1507C7.20176 11.1507 6.77812 11.5743 6.77812 12.1166V14.5736H4.28718C3.76188 14.5736 3.32129 14.9972 3.32129 15.5395C3.32129 16.0648 3.74493 16.5054 4.28718 16.5054H6.76123V19.1319C6.76123 19.6572 7.18487 20.0978 7.72712 20.0978C8.26937 20.0978 8.69301 19.6741 8.69301 19.1319V16.5054H11.1671C11.6924 16.5054 12.133 16.0817 12.133 15.5395C12.1499 14.9972 11.7263 14.5736 11.184 14.5736H11.184Z" fill="#818181"/>
<path d="M68.7306 14.5736H61.8338C61.3085 14.5736 60.8679 14.9972 60.8679 15.5395C60.8679 16.0648 61.2916 16.5054 61.8338 16.5054H68.7306C69.2559 16.5054 69.6965 16.0817 69.6965 15.5395C69.6965 14.9972 69.2559 14.5736 68.7306 14.5736Z" fill="#818181"/>
</svg>
