<svg width="65" height="66" viewBox="0 0 65 66" fill="none" xmlns="http://www.w3.org/2000/svg">
<path d="M34.4553 4.81775C35.4551 5.9398 34.9943 7.63801 33.5067 8.0426C32.1398 8.41401 30.1191 6.65718 29.8556 5.31517C29.7823 4.94034 29.7159 3.80415 30.0144 3.5114C30.3111 3.22063 31.6598 3.39362 32.0723 3.38678C32.8948 3.3731 33.0702 3.37799 33.6684 3.85983C34.1747 4.26789 34.5779 4.55182 35.2092 4.74926C37.2832 5.39678 38.1702 2.14644 36.1045 1.50139C35.6231 1.35088 35.1652 0.589483 34.6673 0.345139C34.0427 0.0387304 33.3619 0.0142974 32.6787 0.0118453C31.1325 0.00695834 29.2114 -0.150892 27.9198 0.850441C25.4823 2.74066 26.2788 6.986 28.152 8.94027C30.4331 11.3202 33.5046 12.5317 36.3684 10.2885C38.9272 8.28397 38.9057 4.75749 36.8366 2.43616C35.3915 0.81416 33.0165 3.20313 34.4553 4.81775Z" fill="#818181"/>
<path d="M16.2274 6.76618H27.0055C29.1728 6.76618 29.1763 3.39808 27.0055 3.39808H16.2274C14.0601 3.39808 14.0566 6.76618 16.2274 6.76618Z" fill="#818181"/>
<path d="M30.8335 11.4824C30.7529 13.8091 30.8399 16.1235 31.095 18.4375C31.33 20.5687 34.7005 20.5927 34.463 18.4375C34.2079 16.1235 34.121 13.8091 34.2016 11.4824C34.2769 9.31453 30.9083 9.3174 30.8335 11.4824Z" fill="#818181"/>
<path d="M28.5778 21.5809C30.4173 21.5853 32.2621 21.5448 34.1006 21.5946C34.8317 21.6146 35.8634 21.4666 36.4948 21.8707C37.4785 22.5001 37.4819 23.8573 37.414 24.8405C37.826 24.299 38.2384 23.758 38.6504 23.2166C36.9889 23.868 34.5796 23.3862 32.8042 23.3813C30.911 23.3764 28.4168 23.7757 26.5728 23.3099L27.7491 24.4862C27.3929 23.5411 27.2917 21.7872 28.3228 21.1612C30.1735 20.0381 28.4826 17.1245 26.6227 18.253C25.269 19.0744 24.4773 20.2297 24.2344 21.8053C24.0125 23.2465 23.9548 25.6914 25.4762 26.4729C27.2276 27.3726 30.368 26.7431 32.2857 26.748C34.5155 26.7539 37.4404 27.2895 39.5462 26.4641C40.2904 26.1724 40.7269 25.6475 40.7826 24.8402C40.9541 22.3563 40.4722 20.0222 38.0205 18.888C35.2867 17.6233 31.4945 18.2194 28.5779 18.2121C26.4105 18.2072 26.407 21.5755 28.5778 21.5809Z" fill="#818181"/>
<path d="M35.1972 26.415C35.2016 27.3264 35.3849 28.4739 35.2265 29.3578C35.096 30.084 34.1431 31.1059 33.7345 31.7246C32.5367 33.5386 35.4522 35.2276 36.6427 33.4248C37.2951 32.4371 38.2017 31.4041 38.4855 30.2371C38.7753 29.0452 38.571 27.6319 38.5652 26.4145C38.5549 24.2482 35.1869 24.2433 35.1972 26.415Z" fill="#818181"/>
<path d="M25.6653 26.5376C25.2236 29.5484 25.9532 32.2812 27.8655 34.6538C29.2255 36.3417 31.5956 33.9457 30.2473 32.2719C29.1752 30.9412 28.665 29.1276 28.9137 27.4328C29.0466 26.5258 28.6879 25.6339 27.7374 25.3612C26.9458 25.134 25.7972 25.6389 25.6653 26.5376Z" fill="#818181"/>
<path d="M12.4154 53.3928C21.9263 53.3293 31.4377 53.3308 40.9483 53.4192C45.5747 53.4622 50.6371 52.9662 55.2128 53.6123C57.6499 53.9563 61.8268 54.1928 61.1778 57.3439C60.3436 61.3942 54.8639 60.8258 51.8849 61.0301C42.5522 61.6708 33.0877 61.5091 23.7373 61.5604C19.4525 61.5838 15.1676 61.5848 10.8827 61.5614C9.59653 61.5545 5.13126 62.2089 4.21749 60.6455C5.04339 58.3565 5.86926 56.0674 6.69521 53.7784C8.71204 53.4373 10.7265 53.407 12.7389 53.6885C14.899 53.8698 14.8868 50.5008 12.7389 50.3204C8.43305 49.9587 2.93866 49.9895 0.68826 54.4606C-0.741197 57.2999 0.0769065 62.4796 2.94754 64.2442C5.07722 65.554 8.58856 64.9167 10.883 64.9289C15.1679 64.9519 19.4532 64.9519 23.7376 64.9279C33.102 64.8756 42.5347 64.9558 51.8851 64.3977C55.7057 64.1695 61.7416 64.58 63.863 60.6304C65.2538 58.0408 65.1169 53.0469 62.5255 51.2152C60.6353 49.8796 57.3492 50.2803 55.2127 50.2427C50.4582 50.1586 45.7027 50.0941 40.9481 50.0497C31.4376 49.9607 21.9271 49.9597 12.4153 50.0233C10.249 50.0389 10.2441 53.407 12.4158 53.3929L12.4154 53.3928Z" fill="#818181"/>
<path d="M10.7615 50.4403C10.7146 47.3835 10.6682 44.3263 10.6213 41.2694L8.93721 42.9535C10.3793 42.8787 11.822 42.8206 13.2665 42.7966C13.9565 42.7854 17.0494 42.3519 17.5983 42.8093C18.1652 43.2819 18.0259 45.0231 18.1002 45.8177C18.2443 47.3557 18.3391 48.8951 18.4061 50.4379C18.4999 52.597 21.8685 52.6087 21.7742 50.4379C21.6764 48.1937 21.5132 45.9556 21.2469 43.7247C21.1056 42.5416 21.1545 40.9157 20.1654 40.0615C19.101 39.1427 17.1521 39.4242 15.8654 39.4154C13.5538 39.3993 11.2452 39.4653 8.93717 39.585C8.03847 39.6319 7.23849 40.3186 7.25313 41.2691C7.30004 44.3259 7.34647 47.3831 7.39338 50.4399C7.42613 52.6058 10.7948 52.6126 10.7615 50.4404L10.7615 50.4403Z" fill="#818181"/>
<path d="M28.8031 50.778V46.1462C28.8031 44.7559 28.4894 42.9189 28.8441 41.5804C28.4522 41.9723 28.0598 42.3647 27.6679 42.7567C29.1135 42.3623 31.0096 42.6946 32.5064 42.6917C34.1411 42.6887 35.7758 42.6902 37.411 42.6941C36.8495 42.1326 36.2884 41.5716 35.7269 41.0101C35.8466 43.8919 35.9669 46.7737 36.0866 49.6555C36.1765 51.8151 39.5451 51.8267 39.4547 49.6555C39.335 46.7737 39.2147 43.8919 39.095 41.0101C39.0569 40.0986 38.3541 39.3285 37.411 39.326C35.2314 39.3206 33.0513 39.3201 30.8717 39.328C29.5317 39.3329 27.3395 38.892 26.1997 39.8103C25.0342 40.7491 25.4349 42.7488 25.4349 44.0409V50.7781C25.4344 52.9454 28.8025 52.9489 28.803 50.7781L28.8031 50.778Z" fill="#818181"/>
<path d="M45.6447 50.4415C45.6432 47.499 45.6423 44.5572 45.6408 41.6147C45.0793 42.1762 44.5183 42.7372 43.9568 43.2987C48.0994 43.0949 52.2396 43.0676 56.3848 43.2161L54.7007 41.5321C54.8585 44.3147 54.903 47.0934 54.8336 49.8795C54.7794 52.0478 58.1479 52.0468 58.2017 49.8795C58.2711 47.0934 58.2271 44.3143 58.0688 41.5321C58.0155 40.5977 57.3392 39.8822 56.3848 39.848C52.2396 39.699 48.0994 39.7268 43.9568 39.9306C43.0478 39.9756 42.2722 40.6661 42.2727 41.6147C42.2742 44.5572 42.2751 47.499 42.2766 50.4415C42.2776 52.6083 45.6457 52.6123 45.6447 50.4415Z" fill="#818181"/>
<path d="M8.28453 59.4791H9.80043C11.9678 59.4791 11.9713 56.111 9.80043 56.111H8.28453C6.1172 56.111 6.11369 59.4791 8.28453 59.4791Z" fill="#818181"/>
<path d="M16.2263 60.0058C16.3714 59.9726 16.5386 59.978 16.7052 59.9878C17.6142 60.04 18.3892 59.176 18.3892 58.3037C18.3892 57.3483 17.6166 56.672 16.7052 56.6197C16.2439 56.5933 15.7806 56.6544 15.3305 56.758C14.4441 56.9617 13.9206 57.9797 14.1543 58.8296C14.4045 59.7395 15.3369 60.2101 16.2263 60.0059L16.2263 60.0058Z" fill="#818181"/>
<path d="M24.0315 59.7319H25.1262C27.2935 59.7319 27.297 56.3638 25.1262 56.3638H24.0315C21.8642 56.3638 21.8603 59.7319 24.0315 59.7319Z" fill="#818181"/>
<path d="M32.2834 59.7319H33.7994C35.9667 59.7319 35.9702 56.3638 33.7994 56.3638H32.2834C30.1161 56.3638 30.1122 59.7319 32.2834 59.7319Z" fill="#818181"/>
<path d="M40.5353 59.563H41.5459C43.7132 59.563 43.7167 56.1949 41.5459 56.1949H40.5353C38.3679 56.1949 38.3644 59.563 40.5353 59.563Z" fill="#818181"/>
<path d="M47.9454 59.6481H48.6188C50.7862 59.6481 50.7897 56.28 48.6188 56.28H47.9454C45.7781 56.2795 45.7746 59.6481 47.9454 59.6481Z" fill="#818181"/>
<path d="M54.5973 59.6481H56.618C58.7853 59.6481 58.7888 56.28 56.618 56.28H54.5973C52.4299 56.2795 52.4264 59.6481 54.5973 59.6481Z" fill="#818181"/>
</svg>
