<svg width="68" height="67" viewBox="0 0 68 67" fill="none" xmlns="http://www.w3.org/2000/svg">
<path d="M9.23575 22.6727H9.33928H15.9724H16.2224V22.9227V26.2414V26.4914H15.9724H14.3137H14.3128C13.9103 26.49 13.5241 26.6488 13.2395 26.9325C12.9546 27.217 12.7944 27.6024 12.7944 28.0048C12.7944 28.4068 12.9546 28.7927 13.2393 29.0765C13.524 29.3602 13.9102 29.5191 14.3128 29.5177L14.3137 29.5177L21.1587 29.5177H21.1595C21.5614 29.5191 21.9477 29.3603 22.233 29.0765L9.23575 22.6727ZM9.23575 22.6727L9.16253 22.7459M9.23575 22.6727L9.16253 22.7459M9.16253 22.7459L5.84319 26.0645L5.41629 26.4913H6.01994H7.468C8.30127 26.4947 8.97514 27.171 8.97514 28.0048C8.97514 28.8382 8.30108 29.5149 7.46797 29.5177C7.46787 29.5177 7.46778 29.5177 7.46768 29.5177L3.52677 29.5177H3.27677V29.7677V35.9388V36.1888H3.52677H5.48788H5.65516L5.71897 36.0342C6.16057 34.9641 7.00989 34.1133 8.079 33.6697C9.14858 33.2262 10.3505 33.2262 11.4201 33.6697L11.4201 33.6697C12.4897 34.1132 13.3391 34.9641 13.7806 36.0342L14.0112 35.939V36.1888H14.0117H14.3854H28.3056H28.4729L28.5367 36.0342C28.9783 34.9641 29.8276 34.1133 30.8972 33.6697L30.8973 33.6697C31.9663 33.2262 33.1687 33.2261 34.2383 33.6697C35.3074 34.1132 36.1568 34.9641 36.5984 36.0342L36.6622 36.1888H36.8295H38.79H39.04L39.04 35.9389L39.0406 31.557L39.0406 31.3768L38.8696 31.3198L33.5009 29.5306L33.4624 29.5177H33.4218L28.0037 29.5177L28.0028 29.5177C27.6009 29.5191 27.2145 29.3603 26.9292 29.0763C26.6446 28.7925 26.4844 28.4068 26.4844 28.0048C26.4844 27.6024 26.6446 27.217 26.9295 26.9325C27.2148 26.6487 27.601 26.49 28.0028 26.4914H28.0037H29.4517H30.0553L29.6285 26.0646L26.3098 22.7459L26.2366 22.6727H26.133H19.4988H19.2488V22.9227V26.2414V26.4914H19.4988L21.1587 26.4914L21.1595 26.4914M9.16253 22.7459L21.1595 26.4914M21.1587 29.7677H14.3137C13.8447 29.7693 13.3946 29.5842 13.0628 29.2535C12.7311 28.9228 12.5444 28.4733 12.5444 28.0048L21.1587 29.7677ZM21.1587 29.7677C21.6271 29.7693 22.0772 29.5842 22.4095 29.2535L21.1587 29.7677ZM21.1595 26.4914C21.5614 26.49 21.9476 26.6487 22.2329 26.9325C22.5178 27.217 22.6779 27.6024 22.6779 28.0048C22.6779 28.4068 22.5178 28.7925 22.2331 29.0763L21.1595 26.4914ZM9.74952 42.0669L9.73119 42.0669C8.87446 42.0623 8.03791 41.8055 7.32534 41.3289C6.60773 40.8484 6.04879 40.1666 5.71858 39.369L5.65467 39.2146H5.48759H1.76351C0.9326 39.2146 0.258208 38.545 0.250074 37.7158C0.25971 37.6382 0.275706 37.5614 0.297699 37.4866L0.318401 37.4161L0.297698 37.3456C0.275649 37.2706 0.259628 37.1936 0.25 37.1158V28.0046C0.251471 27.6028 0.411281 27.2181 0.694306 26.9336C0.694393 26.9335 0.69448 26.9334 0.694568 26.9334L7.53876 20.0892C7.82269 19.8052 8.20763 19.6456 8.6086 19.6456H26.8629C27.2644 19.6456 27.6493 19.8053 27.9326 20.089L28.1092 20.266L28.1099 20.2653L34.4839 26.6393L34.5256 26.681L34.5816 26.6997L41.0323 28.8496C41.0323 28.8496 41.0324 28.8496 41.0324 28.8496C41.65 29.0558 42.0665 29.6344 42.0665 30.2855V37.1158C42.0569 37.1943 42.0412 37.2708 42.0192 37.3443L41.9977 37.416L42.0192 37.4877C42.0414 37.562 42.0573 37.6383 42.0665 37.7152C42.0592 38.5446 41.3847 39.2145 40.5536 39.2145H36.8295H36.6622L36.5984 39.3692C36.1568 40.4398 35.3075 41.2906 34.2378 41.7342L34.2378 41.7342C33.1688 42.1777 31.9664 42.1777 30.8973 41.7342L30.8972 41.7341C29.8277 41.2906 28.9783 40.4398 28.5367 39.3692L28.3061 39.4643V39.2145H28.3056H27.9321H14.0117H13.8448L13.7808 39.3688C13.45 40.1666 12.891 40.8485 12.1734 41.3289C11.4562 41.8088 10.6128 42.0659 9.74952 42.0669ZM9.74981 39.0406H9.75003C10.4889 39.0399 11.088 38.4408 11.0887 37.7019V37.7017C11.0887 37.1598 10.7622 36.6718 10.262 36.4644C9.76143 36.2568 9.18542 36.372 8.80277 36.7546C8.42011 37.1373 8.30494 37.7133 8.51254 38.2139C8.71998 38.714 9.20798 39.0406 9.74981 39.0406ZM32.567 39.0406H32.5672C33.3065 39.0399 33.9059 38.4408 33.9059 37.7017C33.9059 37.1601 33.5801 36.6719 33.0797 36.4644C32.5791 36.2568 32.0032 36.3721 31.6201 36.7545L31.6199 36.7546C31.2371 37.1375 31.1228 37.7134 31.3296 38.2136L31.3297 38.2139C31.5372 38.714 32.0252 39.0406 32.567 39.0406ZM15.7224 26.2414H14.3137H15.7224ZM29.0982 26.2414H28.0037H29.0982Z" fill="#2F7532" stroke="#E4EAE4" stroke-width="0.5"/>
<mask id="path-2-inside-1_393_217" fill="white">
<path d="M66.9638 47.4169C66.958 47.3638 66.978 47.3122 66.9674 47.2591L63.4411 29.628C63.2765 28.8036 62.5531 28.2106 61.7123 28.2106H49.3703V5.28976C49.3708 4.39542 48.701 3.64254 47.813 3.53836L17.8392 0.0120117C17.3392 -0.046349 16.8381 0.111383 16.4622 0.445783C16.0858 0.78018 15.8707 1.25969 15.8707 1.76286V7.05272C15.8707 8.02647 16.6599 8.8157 17.6337 8.8157C18.3467 8.8157 18.9896 9.24526 19.2626 9.90458C19.5355 10.5634 19.3851 11.3215 18.8804 11.8257C18.3762 12.3299 17.618 12.4808 16.9593 12.2079C16.3005 11.9351 15.8709 11.292 15.8709 10.579C15.8725 10.1106 15.6874 9.6605 15.3567 9.3282C15.0255 8.99644 14.5764 8.80978 14.1075 8.80978C13.639 8.80978 13.1895 8.99643 12.8587 9.3282C12.528 9.6605 12.343 10.1106 12.3445 10.579C12.3388 11.8798 12.813 13.1364 13.6753 14.1101C14.5381 15.0833 15.7295 15.7048 17.0213 15.8552C18.3131 16.0061 19.615 15.6754 20.6786 14.9266C21.7422 14.1779 22.4926 13.0638 22.7864 11.7967C23.0803 10.5296 22.8973 9.19879 22.2722 8.05847C21.647 6.91806 20.6234 6.04784 19.3973 5.61416V3.74606L45.8446 6.85705V45.8422H5.29134C4.3176 45.8422 3.52783 46.6314 3.52783 47.6052V59.9472C3.52783 60.921 4.31755 61.7108 5.29134 61.7108H10.8309C11.3472 63.7418 12.7442 65.4359 14.6402 66.3296C16.5356 67.2235 18.7313 67.2235 20.6267 66.3296C22.5227 65.4358 23.9191 63.7417 24.4355 61.7108H46.0938C46.6101 63.7418 48.0071 65.4359 49.903 66.3296C51.7984 67.2235 53.9942 67.2235 55.8896 66.3296C57.7855 65.4358 59.182 63.7417 59.6983 61.7108H65.2384C66.2121 61.7108 67.0014 60.921 67.0019 59.9472V47.6052C66.9925 47.5416 66.9798 47.479 66.9635 47.417L66.9638 47.4169ZM49.3704 31.7361H60.2671L63.0884 45.8421H49.3701L49.3704 31.7361ZM17.6333 63.4732C16.698 63.4732 15.801 63.102 15.1396 62.4405C14.4782 61.7791 14.107 60.8821 14.107 59.9468C14.107 59.012 14.4782 58.1151 15.1396 57.4536C15.801 56.7922 16.698 56.421 17.6333 56.421C18.5686 56.421 19.4651 56.7922 20.1265 57.4536C20.7879 58.1151 21.1596 59.012 21.1596 59.9468C21.1586 60.8822 20.7869 61.7786 20.1254 62.4396C19.4645 63.1005 18.5681 63.4727 17.6332 63.4733L17.6333 63.4732ZM52.8969 63.4732C51.9615 63.4732 51.0646 63.102 50.4031 62.4405C49.7417 61.7791 49.3705 60.8821 49.3705 59.9468C49.3705 59.012 49.7417 58.1151 50.4031 57.4536C51.0646 56.7922 51.9615 56.421 52.8969 56.421C53.8322 56.421 54.7286 56.7922 55.39 57.4536C56.0515 58.1151 56.4232 59.012 56.4232 59.9468C56.4221 60.8822 56.0504 61.7786 55.389 62.4396C54.7281 63.1005 53.8317 63.4727 52.8967 63.4733L52.8969 63.4732ZM63.476 58.1838H59.7268C59.6563 57.942 59.5733 57.7038 59.4776 57.4714C59.4376 57.3657 59.4108 57.2548 59.3656 57.1517V57.1512C59.1979 56.7637 58.996 56.3915 58.7615 56.0397C58.7105 55.964 58.6468 55.8983 58.5932 55.8247C58.4018 55.557 58.192 55.3026 57.9654 55.0639C57.8629 54.9571 57.7499 54.8636 57.6405 54.7637C57.4397 54.577 57.2278 54.4024 57.0069 54.2405C56.8765 54.1464 56.7425 54.0602 56.6058 53.9745C56.3776 53.833 56.1415 53.7047 55.8986 53.5901C55.754 53.5212 55.611 53.4529 55.4612 53.394H55.4606C55.1883 53.2899 54.9091 53.2031 54.6257 53.1337C54.4895 53.099 54.3586 53.0543 54.2188 53.0275V53.0281C53.3465 52.8498 52.4469 52.8498 51.5746 53.0281C51.4352 53.0549 51.3043 53.0996 51.1676 53.1343L51.1681 53.1337C50.8842 53.2031 50.6056 53.2899 50.3327 53.394C50.1828 53.4529 50.0398 53.5218 49.8952 53.5901C49.6523 53.7047 49.4163 53.833 49.1881 53.9745C49.0514 54.0596 48.9173 54.1459 48.7869 54.2405C48.5655 54.4024 48.3542 54.577 48.1533 54.7637C48.044 54.8636 47.9315 54.9577 47.8284 55.0639C47.6013 55.3026 47.3915 55.5571 47.2001 55.8247C47.1465 55.8988 47.0829 55.964 47.0318 56.0397C46.7974 56.3915 46.5955 56.7637 46.4277 57.1512C46.383 57.2543 46.3557 57.3652 46.3157 57.4709L46.3163 57.4714C46.2201 57.7043 46.137 57.942 46.067 58.1838H24.4639C24.394 57.942 24.3104 57.7038 24.2147 57.4714C24.1748 57.3657 24.1479 57.2548 24.1027 57.1517V57.1512C23.9355 56.7637 23.7331 56.3915 23.4986 56.0397C23.4476 55.964 23.384 55.8983 23.3304 55.8247C23.139 55.557 22.9292 55.3026 22.7026 55.0639C22.6 54.9571 22.487 54.8636 22.3776 54.7637C22.1768 54.577 21.9649 54.4024 21.7441 54.2405C21.6137 54.1464 21.4796 54.0602 21.3429 53.9745C21.1147 53.833 20.8787 53.7047 20.6357 53.5901C20.4912 53.5212 20.3482 53.4529 20.1983 53.394H20.1978C19.9254 53.2899 19.6462 53.2031 19.3628 53.1337C19.2267 53.099 19.0957 53.0543 18.9559 53.0275V53.0281C18.0836 52.8498 17.1846 52.8498 16.3117 53.0281C16.1724 53.0549 16.0415 53.0996 15.9048 53.1343L15.9053 53.1337C15.6214 53.2031 15.3427 53.2899 15.0698 53.394C14.92 53.4529 14.777 53.5218 14.6324 53.5901C14.3895 53.7047 14.1534 53.833 13.9252 53.9745C13.7885 54.0596 13.6544 54.1459 13.524 54.2405C13.3027 54.4024 13.0913 54.577 12.8905 54.7637C12.7811 54.8636 12.6686 54.9577 12.5656 55.0639C12.3389 55.3026 12.1286 55.5571 11.9373 55.8247C11.8836 55.8988 11.82 55.964 11.769 56.0397C11.535 56.3915 11.3326 56.7637 11.1649 57.1512C11.1202 57.2543 11.0928 57.3652 11.0529 57.4709L11.0534 57.4714C10.9572 57.7038 10.8741 57.942 10.8042 58.1838H7.05495V49.3682H63.4761L63.476 58.1838Z"/>
</mask>
<path d="M66.9638 47.4169C66.958 47.3638 66.978 47.3122 66.9674 47.2591L63.4411 29.628C63.2765 28.8036 62.5531 28.2106 61.7123 28.2106H49.3703V5.28976C49.3708 4.39542 48.701 3.64254 47.813 3.53836L17.8392 0.0120117C17.3392 -0.046349 16.8381 0.111383 16.4622 0.445783C16.0858 0.78018 15.8707 1.25969 15.8707 1.76286V7.05272C15.8707 8.02647 16.6599 8.8157 17.6337 8.8157C18.3467 8.8157 18.9896 9.24526 19.2626 9.90458C19.5355 10.5634 19.3851 11.3215 18.8804 11.8257C18.3762 12.3299 17.618 12.4808 16.9593 12.2079C16.3005 11.9351 15.8709 11.292 15.8709 10.579C15.8725 10.1106 15.6874 9.6605 15.3567 9.3282C15.0255 8.99644 14.5764 8.80978 14.1075 8.80978C13.639 8.80978 13.1895 8.99643 12.8587 9.3282C12.528 9.6605 12.343 10.1106 12.3445 10.579C12.3388 11.8798 12.813 13.1364 13.6753 14.1101C14.5381 15.0833 15.7295 15.7048 17.0213 15.8552C18.3131 16.0061 19.615 15.6754 20.6786 14.9266C21.7422 14.1779 22.4926 13.0638 22.7864 11.7967C23.0803 10.5296 22.8973 9.19879 22.2722 8.05847C21.647 6.91806 20.6234 6.04784 19.3973 5.61416V3.74606L45.8446 6.85705V45.8422H5.29134C4.3176 45.8422 3.52783 46.6314 3.52783 47.6052V59.9472C3.52783 60.921 4.31755 61.7108 5.29134 61.7108H10.8309C11.3472 63.7418 12.7442 65.4359 14.6402 66.3296C16.5356 67.2235 18.7313 67.2235 20.6267 66.3296C22.5227 65.4358 23.9191 63.7417 24.4355 61.7108H46.0938C46.6101 63.7418 48.0071 65.4359 49.903 66.3296C51.7984 67.2235 53.9942 67.2235 55.8896 66.3296C57.7855 65.4358 59.182 63.7417 59.6983 61.7108H65.2384C66.2121 61.7108 67.0014 60.921 67.0019 59.9472V47.6052C66.9925 47.5416 66.9798 47.479 66.9635 47.417L66.9638 47.4169ZM49.3704 31.7361H60.2671L63.0884 45.8421H49.3701L49.3704 31.7361ZM17.6333 63.4732C16.698 63.4732 15.801 63.102 15.1396 62.4405C14.4782 61.7791 14.107 60.8821 14.107 59.9468C14.107 59.012 14.4782 58.1151 15.1396 57.4536C15.801 56.7922 16.698 56.421 17.6333 56.421C18.5686 56.421 19.4651 56.7922 20.1265 57.4536C20.7879 58.1151 21.1596 59.012 21.1596 59.9468C21.1586 60.8822 20.7869 61.7786 20.1254 62.4396C19.4645 63.1005 18.5681 63.4727 17.6332 63.4733L17.6333 63.4732ZM52.8969 63.4732C51.9615 63.4732 51.0646 63.102 50.4031 62.4405C49.7417 61.7791 49.3705 60.8821 49.3705 59.9468C49.3705 59.012 49.7417 58.1151 50.4031 57.4536C51.0646 56.7922 51.9615 56.421 52.8969 56.421C53.8322 56.421 54.7286 56.7922 55.39 57.4536C56.0515 58.1151 56.4232 59.012 56.4232 59.9468C56.4221 60.8822 56.0504 61.7786 55.389 62.4396C54.7281 63.1005 53.8317 63.4727 52.8967 63.4733L52.8969 63.4732ZM63.476 58.1838H59.7268C59.6563 57.942 59.5733 57.7038 59.4776 57.4714C59.4376 57.3657 59.4108 57.2548 59.3656 57.1517V57.1512C59.1979 56.7637 58.996 56.3915 58.7615 56.0397C58.7105 55.964 58.6468 55.8983 58.5932 55.8247C58.4018 55.557 58.192 55.3026 57.9654 55.0639C57.8629 54.9571 57.7499 54.8636 57.6405 54.7637C57.4397 54.577 57.2278 54.4024 57.0069 54.2405C56.8765 54.1464 56.7425 54.0602 56.6058 53.9745C56.3776 53.833 56.1415 53.7047 55.8986 53.5901C55.754 53.5212 55.611 53.4529 55.4612 53.394H55.4606C55.1883 53.2899 54.9091 53.2031 54.6257 53.1337C54.4895 53.099 54.3586 53.0543 54.2188 53.0275V53.0281C53.3465 52.8498 52.4469 52.8498 51.5746 53.0281C51.4352 53.0549 51.3043 53.0996 51.1676 53.1343L51.1681 53.1337C50.8842 53.2031 50.6056 53.2899 50.3327 53.394C50.1828 53.4529 50.0398 53.5218 49.8952 53.5901C49.6523 53.7047 49.4163 53.833 49.1881 53.9745C49.0514 54.0596 48.9173 54.1459 48.7869 54.2405C48.5655 54.4024 48.3542 54.577 48.1533 54.7637C48.044 54.8636 47.9315 54.9577 47.8284 55.0639C47.6013 55.3026 47.3915 55.5571 47.2001 55.8247C47.1465 55.8988 47.0829 55.964 47.0318 56.0397C46.7974 56.3915 46.5955 56.7637 46.4277 57.1512C46.383 57.2543 46.3557 57.3652 46.3157 57.4709L46.3163 57.4714C46.2201 57.7043 46.137 57.942 46.067 58.1838H24.4639C24.394 57.942 24.3104 57.7038 24.2147 57.4714C24.1748 57.3657 24.1479 57.2548 24.1027 57.1517V57.1512C23.9355 56.7637 23.7331 56.3915 23.4986 56.0397C23.4476 55.964 23.384 55.8983 23.3304 55.8247C23.139 55.557 22.9292 55.3026 22.7026 55.0639C22.6 54.9571 22.487 54.8636 22.3776 54.7637C22.1768 54.577 21.9649 54.4024 21.7441 54.2405C21.6137 54.1464 21.4796 54.0602 21.3429 53.9745C21.1147 53.833 20.8787 53.7047 20.6357 53.5901C20.4912 53.5212 20.3482 53.4529 20.1983 53.394H20.1978C19.9254 53.2899 19.6462 53.2031 19.3628 53.1337C19.2267 53.099 19.0957 53.0543 18.9559 53.0275V53.0281C18.0836 52.8498 17.1846 52.8498 16.3117 53.0281C16.1724 53.0549 16.0415 53.0996 15.9048 53.1343L15.9053 53.1337C15.6214 53.2031 15.3427 53.2899 15.0698 53.394C14.92 53.4529 14.777 53.5218 14.6324 53.5901C14.3895 53.7047 14.1534 53.833 13.9252 53.9745C13.7885 54.0596 13.6544 54.1459 13.524 54.2405C13.3027 54.4024 13.0913 54.577 12.8905 54.7637C12.7811 54.8636 12.6686 54.9577 12.5656 55.0639C12.3389 55.3026 12.1286 55.5571 11.9373 55.8247C11.8836 55.8988 11.82 55.964 11.769 56.0397C11.535 56.3915 11.3326 56.7637 11.1649 57.1512C11.1202 57.2543 11.0928 57.3652 11.0529 57.4709L11.0534 57.4714C10.9572 57.7038 10.8741 57.942 10.8042 58.1838H7.05495V49.3682H63.4761L63.476 58.1838Z" fill="#2F7532" stroke="#E4EAE4" mask="url(#path-2-inside-1_393_217)"/>
</svg>
