<svg width="74" height="51" viewBox="0 0 74 51" fill="none" xmlns="http://www.w3.org/2000/svg">
<path d="M68.445 21.2636L66.3909 13.0505C66.9638 12.9282 67.3734 12.422 67.3739 11.8362V10.512C67.3723 9.12954 66.8223 7.80411 65.8445 6.82644C64.8674 5.84873 63.542 5.29924 62.159 5.2976H52.8064V2.56636C52.8053 1.88554 52.5346 1.23355 52.054 0.752375C51.5729 0.271264 50.9203 0.00106625 50.24 0H2.56636C1.88607 0.00106789 1.23355 0.271264 0.752375 0.752375C0.271264 1.23349 0.00106625 1.88548 0 2.56636V39.6472C0.00106803 40.3275 0.271264 40.9795 0.752375 41.4607C1.23349 41.9418 1.88602 42.2125 2.56636 42.213H9.27211V42.2958C9.29935 45.0864 10.8041 47.6532 13.2257 49.0411C15.6473 50.4283 18.6226 50.4283 21.0442 49.0411C23.4658 47.6533 24.9706 45.0864 24.9978 42.2958V42.213H52.9745V42.2958C52.9745 45.1051 54.4729 47.7007 56.9062 49.1056C59.3391 50.5099 62.3363 50.5099 64.7696 49.1056C67.2024 47.7007 68.7013 45.105 68.7013 42.2958V42.213H72.7585C73.0874 42.213 73.4035 42.0822 73.6364 41.8494C73.8692 41.6166 74 41.3005 74 40.9715V27.7283C73.9979 26.1648 73.4366 24.6548 72.4178 23.4693C71.399 22.2839 69.9904 21.5016 68.4455 21.264L68.445 21.2636ZM17.1325 47.6738C15.7052 47.6738 14.3371 47.1072 13.3279 46.0981C12.3192 45.0894 11.7522 43.7207 11.7522 42.294C11.7522 40.8673 12.3192 39.4987 13.3279 38.49C14.3371 37.4808 15.7052 36.9142 17.1325 36.9142C18.5593 36.9142 19.9273 37.4808 20.9365 38.49C21.9452 39.4987 22.5123 40.8673 22.5123 42.294C22.5112 43.7209 21.9436 45.0883 20.9354 46.0975C19.9268 47.1062 18.5587 47.6738 17.1325 47.6754V47.6738ZM50.3229 24.0085V39.7302H24.5621C23.846 37.6552 22.2953 35.9738 20.2849 35.0932C18.2745 34.2121 15.9874 34.2121 13.9769 35.0932C11.9665 35.9737 10.4158 37.6552 9.70032 39.7302H2.56425C2.51832 39.7302 2.48148 39.6934 2.48148 39.6475V2.56662C2.48148 2.52069 2.51832 2.48385 2.56425 2.48385H50.2379C50.2603 2.48331 50.2811 2.49186 50.2971 2.50788C50.3126 2.52336 50.3217 2.54419 50.3217 2.56662L50.3229 24.0085ZM52.8053 7.77968L62.158 7.77915C62.8826 7.77968 63.5768 8.06803 64.0889 8.58012C64.601 9.0922 64.8888 9.78637 64.8898 10.5104V10.5932H52.8054L52.8053 7.77968ZM52.8053 13.0762L63.8379 13.0757L65.8659 21.19L52.8053 21.1905V13.0762ZM60.8342 47.6773L60.8337 47.6768C59.4068 47.6768 58.0383 47.1103 57.0296 46.1011C56.0209 45.0924 55.4539 43.7238 55.4539 42.297C55.4539 40.8703 56.021 39.5017 57.0296 38.4924C58.0383 37.4838 59.4069 36.9167 60.8337 36.9167C62.2604 36.9167 63.629 37.4838 64.6383 38.4924C65.6469 39.5017 66.214 40.8703 66.214 42.297C66.2119 43.7228 65.6442 45.0903 64.6355 46.0985C63.6274 47.1066 62.2598 47.6737 60.8337 47.6753L60.8342 47.6773ZM71.5149 39.7301H68.2646C67.5491 37.655 65.9984 35.9736 63.988 35.093C61.9775 34.2119 59.6904 34.2119 57.68 35.093C55.669 35.9735 54.1183 37.655 53.4029 39.7301H52.8048L52.8053 23.6721H67.4581C68.3162 23.6737 69.1519 23.9471 69.845 24.4528C70.5381 24.9585 71.0528 25.6708 71.3167 26.4873H67.4581C66.773 26.4873 66.2171 27.0426 66.2166 27.7282V30.3768C66.2176 31.4079 66.6283 32.3968 67.3571 33.1262C68.0866 33.8556 69.0754 34.2657 70.1071 34.2668H71.5152L71.5149 39.7301ZM71.5149 31.7839H70.1041C69.3272 31.7834 68.6977 31.1539 68.6971 30.3769V28.9693H71.5149V31.7839Z" fill="#818181"/>
<path d="M19.6997 42.2961C19.6997 42.9764 19.4295 43.6294 18.9484 44.1105C18.4673 44.5921 17.8148 44.8628 17.1344 44.8628C16.4536 44.8628 15.8005 44.5926 15.3195 44.1115C14.8384 43.6304 14.5676 42.9774 14.5676 42.2971C14.5676 41.6163 14.8378 40.9638 15.3189 40.4827C15.8006 40.0011 16.4531 39.7309 17.1339 39.7309C17.8136 39.7314 18.4656 40.0022 18.9468 40.4833C19.4279 40.9638 19.6986 41.6158 19.6997 42.2962L19.6997 42.2961Z" fill="#818181"/>
<path d="M63.4022 42.296C63.4028 42.9763 63.1326 43.6294 62.6514 44.1104C62.1703 44.5921 61.5178 44.8623 60.837 44.8628C60.1567 44.8628 59.5037 44.5926 59.0226 44.1115C58.541 43.6304 58.2708 42.9779 58.2703 42.2975C58.2703 41.6167 58.5405 40.9642 59.0216 40.4826C59.5027 40.0014 60.1552 39.7307 60.8356 39.7307C61.5159 39.7312 62.1684 40.0014 62.6495 40.4826C63.1307 40.9637 63.4014 41.6157 63.4025 42.296L63.4022 42.296Z" fill="#818181"/>
<path d="M47.5096 35.673C47.5096 36.3586 46.9542 36.9139 46.2686 36.9144H27.7295C27.0439 36.9144 26.488 36.3586 26.488 35.673C26.488 34.9873 27.0439 34.4315 27.7295 34.4315H46.27C46.955 34.4325 47.5093 34.9879 47.5093 35.673H47.5096Z" fill="#818181"/>
<path d="M37.8765 14.0378L25.9577 25.9567V25.9572C25.7248 26.19 25.4087 26.3209 25.0793 26.3209C24.7503 26.3209 24.4342 26.19 24.2014 25.9572L17.5805 19.3354C17.1101 18.8484 17.1165 18.0741 17.5955 17.5952C18.0739 17.1162 18.8482 17.1093 19.3357 17.5792L25.077 23.3205L36.1202 12.2827C36.3514 12.0429 36.6696 11.9062 37.0023 11.9036C37.3355 11.9004 37.6559 12.0312 37.8914 12.2667C38.1269 12.5022 38.2582 12.8225 38.2556 13.1557C38.2524 13.4889 38.1157 13.8067 37.8765 14.0379L37.8765 14.0378Z" fill="#818181"/>
</svg>
