<svg width="70" height="70" viewBox="0 0 70 70" fill="none" xmlns="http://www.w3.org/2000/svg">
<path d="M55.809 44.2652C53.1617 44.2652 51.0435 46.3834 51.0435 49.0308C51.0435 51.6781 53.1617 53.7964 55.809 53.7964C58.4564 53.7964 60.5746 51.6781 60.5746 49.0308C60.5746 46.3834 58.4564 44.2652 55.809 44.2652ZM55.809 51.6781C54.3265 51.6781 53.1617 50.5133 53.1617 49.0308C53.1617 47.5483 54.3266 46.3834 55.809 46.3834C57.2915 46.3834 58.4564 47.5483 58.4564 49.0308C58.4564 50.5133 57.2915 51.6781 55.809 51.6781Z" fill="#818181"/>
<path d="M14.0852 44.2652C11.4378 44.2652 9.31958 46.3834 9.31958 49.0308C9.31958 51.6781 11.4378 53.7964 14.0852 53.7964C16.7325 53.7964 18.8508 51.6781 18.8508 49.0308C18.8508 46.3834 16.7325 44.2652 14.0852 44.2652ZM14.0852 51.6781C12.6027 51.6781 11.4378 50.5133 11.4378 49.0308C11.4378 47.5483 12.6027 46.3834 14.0852 46.3834C15.5676 46.3834 16.7325 47.5483 16.7325 49.0308C16.7325 50.5133 15.5676 51.6781 14.0852 51.6781Z" fill="#818181"/>
<path d="M42.3596 45.6422H27.5331C25.627 45.6422 24.1445 47.1247 24.1445 49.0308C24.1445 50.9369 25.627 52.4194 27.5331 52.4194H42.3596C44.2657 52.4194 45.7482 50.9369 45.7482 49.0308C45.7482 47.1247 44.2657 45.6422 42.3596 45.6422ZM42.3596 50.3017H27.5331C26.7919 50.3017 26.2622 49.772 26.2622 49.0308C26.2622 48.2896 26.7919 47.7599 27.5331 47.7599H42.3596C43.1008 47.7599 43.6305 48.2896 43.6305 49.0308C43.6305 49.772 42.9947 50.3017 42.3596 50.3017Z" fill="#818181"/>
<path d="M69.8938 29.2289C69.8938 28.5937 69.4702 28.17 68.835 28.17H65.9755C63.5397 28.17 61.3159 29.5464 60.2572 31.6647L57.0802 25.6282C56.9741 25.4166 56.8686 25.3106 56.7626 25.2046C55.7038 23.616 53.9031 22.6627 51.997 22.6627H45.5369C41.5126 21.4979 40.4538 18.956 40.1361 17.262C42.5719 15.5674 44.266 12.7085 44.266 9.5315C44.372 4.23624 40.1361 0.000457764 34.9469 0.000457764C29.7578 0.000457764 25.5218 4.23638 25.5218 9.42556C25.5218 12.6026 27.1104 15.4621 29.6517 17.156C29.4401 18.8505 28.2753 21.3919 24.2509 22.5568H17.7908C15.7786 22.5568 13.9786 23.6156 13.0252 25.2041C12.9192 25.3102 12.8137 25.4157 12.8137 25.6278L9.63666 31.6643C8.57784 29.6521 6.45965 28.1696 3.91838 28.1696H1.05888C0.42369 28.1696 5.55174e-05 28.5932 5.55174e-05 29.2284C5.55174e-05 32.7231 2.85955 35.5825 6.35408 35.5825H7.41291L3.91824 42.2541C3.4946 43.1014 3.28304 44.0542 3.28304 44.9015V60.5746C3.28304 62.2691 4.55396 63.6455 6.14254 63.9631V66.6105C6.14254 67.0341 6.24858 67.4578 6.35408 67.7754L1.05883 67.7759C0.423634 67.7759 0 68.1995 0 68.8347C0 69.4699 0.423634 69.8936 1.05883 69.8936H60.4695L68.8352 69.8941C69.4703 69.8941 69.894 69.4705 69.894 68.8353C69.894 68.2001 69.4703 67.7765 68.8352 67.7765H63.5405C63.6465 67.4589 63.752 67.0352 63.752 66.6116V63.9642C65.3406 63.7527 66.6115 62.2697 66.6115 60.5756L66.611 44.9026C66.611 43.9493 66.3994 42.9965 65.9758 42.2552L62.4811 35.5835H63.5399C67.0346 35.583 69.8939 32.7241 69.8939 29.2295L69.8938 29.2289ZM2.22395 30.2877H3.91846C5.93063 30.2877 7.62514 31.6641 8.04831 33.4647H6.3538C4.44771 33.4647 2.7532 32.0877 2.22395 30.2877ZM27.6395 9.42572C27.6395 5.40138 30.922 2.11885 34.9464 2.11885C38.9707 2.11885 42.2532 5.40194 42.2532 9.42572C42.2532 12.0731 40.7707 14.4028 38.6526 15.6737C37.5938 16.3089 36.3229 16.7325 34.9459 16.7325C33.5695 16.7325 32.2986 16.3089 31.2393 15.6737C29.1221 14.4028 27.6396 12.0731 27.6396 9.42572H27.6395ZM31.5578 18.2155C32.6166 18.6391 33.7815 18.8507 34.9464 18.8507C36.1112 18.8507 37.2761 18.6392 38.335 18.2155C38.6525 19.4864 39.3938 21.1805 41.0884 22.5574H28.91C30.4986 21.1804 31.2397 19.4859 31.5579 18.2155H31.5578ZM24.4625 24.675H33.8876V27.746H30.7106C30.0754 27.746 29.6518 28.1696 29.6518 28.8048C29.6518 29.44 30.0754 29.8636 30.7106 29.8636L39.1823 29.8642C39.8175 29.8642 40.2411 29.4406 40.2411 28.8054C40.2411 28.1702 39.8175 27.7465 39.1823 27.7465H36.0053V24.6756H51.996C53.1609 24.6756 54.3257 25.2053 54.961 26.2642C55.067 26.3702 55.1725 26.4757 55.1725 26.6878L61.3155 38.1245H52.2081C52.3141 37.7009 52.4196 37.2772 52.4196 36.8536C52.4196 33.8886 49.9839 31.4528 47.0189 31.4528C44.0539 31.4528 41.6181 33.8886 41.6181 36.8536C41.6181 37.2772 41.7242 37.7009 41.8297 38.1245H8.47122L14.6132 26.5813C14.7193 26.4753 14.7193 26.3698 14.8248 26.2637C15.46 25.3104 16.6248 24.6751 17.7898 24.6751L24.4625 24.675ZM43.9475 38.1243C43.7359 37.7007 43.7359 37.2771 43.7359 36.8534C43.7359 35.0534 45.2184 33.5703 47.019 33.5703C48.819 33.5703 50.3021 35.0528 50.3021 36.8534C50.3021 37.2771 50.196 37.7007 50.0905 38.1243H43.9475ZM9.42474 67.7758C8.78955 67.7758 8.25987 67.2461 8.25987 66.6109V63.9636H15.4612V66.6109C15.4612 67.2461 14.9315 67.7758 14.2963 67.7758H9.42474ZM52.3144 64.0697V66.717C52.3144 67.1407 52.4204 67.5643 52.5259 67.8819H17.3679C17.4739 67.5643 17.5794 67.1407 17.5794 66.717V64.0697H52.3144ZM48.3961 61.9515H21.4972V61.4218C21.4972 60.2569 22.4505 59.3035 23.6154 59.3035H46.2784C47.4433 59.3035 48.3966 60.2569 48.3966 61.4218L48.3961 61.9515ZM55.5969 67.7758C54.9617 67.7758 54.432 67.2461 54.432 66.6109V63.9636H61.6334V66.6109C61.6334 67.2461 61.1037 67.7758 60.4685 67.7758H55.5969ZM64.4927 60.575C64.4927 61.3163 63.963 61.8459 63.2218 61.8459H50.5138V61.4218C50.5138 59.0921 48.6077 57.1858 46.2778 57.1858H23.6149C21.2852 57.1858 19.379 59.0919 19.379 61.4218V61.8454H6.6709C5.92967 61.8454 5.39999 61.3157 5.39999 60.5745V44.9014C5.39999 44.2662 5.50603 43.7365 5.82362 43.2069L7.4122 40.2415H62.4806L64.0692 43.2065C64.3868 43.7362 64.4928 44.2653 64.4928 44.901L64.4927 60.575ZM65.9753 30.2882H67.6697C67.2461 32.0883 65.5515 33.4653 63.5399 33.4653H61.8454C62.3745 31.6647 63.9631 30.2882 65.9753 30.2882Z" fill="#818181"/>
<path d="M34.9471 13.7671C37.2768 13.7671 39.289 11.861 39.289 9.42527C39.289 8.79008 38.8653 8.36645 38.2302 8.36645C37.0653 8.36645 36.0064 7.41312 36.0064 6.14269C36.0064 5.5075 35.5828 5.08386 34.9476 5.08386C32.6179 5.08386 30.6057 6.98996 30.6057 9.42572C30.6052 11.755 32.6173 13.767 34.947 13.767L34.9471 13.7671ZM34.0998 7.4131C34.5235 8.78952 35.5823 9.84887 36.9593 10.2726C36.6417 11.0138 35.9005 11.5435 34.9472 11.5435C33.7823 11.5435 32.7234 10.5902 32.7234 9.31976C32.7234 8.57798 33.2525 7.73076 34.0998 7.4131H34.0998Z" fill="#818181"/>
<path d="M60.1514 19.5913C65.5522 19.5913 70.0001 15.2495 70.0001 9.74263C70.0001 4.23578 65.5522 0 60.1514 0C54.7507 0 50.3027 4.34186 50.3027 9.8487C50.3027 15.3555 54.7501 19.5913 60.1514 19.5913ZM60.1514 2.11866C64.3874 2.11866 67.8819 5.61333 67.8819 9.84912C67.8819 14.085 64.3872 17.5796 60.1514 17.5796C55.9156 17.5796 52.421 14.0849 52.421 9.84912C52.4204 5.61319 55.9151 2.11866 60.1514 2.11866Z" fill="#818181"/>
<path d="M60.1514 11.4371C60.7866 11.4371 61.2102 11.0135 61.2102 10.3783V5.93038C61.2102 5.29519 60.7866 4.87155 60.1514 4.87155C59.5162 4.87155 59.0925 5.29519 59.0925 5.93038V10.3783C59.092 10.9074 59.5156 11.4371 60.1514 11.4371Z" fill="#818181"/>
<path d="M59.7273 14.7201C59.8333 14.7201 60.0449 14.8261 60.1509 14.8261C60.4685 14.8261 60.6806 14.7201 60.8922 14.5085C61.1037 14.297 61.2097 14.0849 61.2097 13.7673V13.5558C61.2097 13.4497 61.2097 13.4497 61.1037 13.3442C61.1037 13.2382 61.1037 13.2382 60.9977 13.1327C60.9977 13.1327 60.8916 13.0266 60.8916 12.9211C60.574 12.6035 60.1504 12.4975 59.7267 12.7096C59.6207 12.7096 59.5152 12.8156 59.4091 12.9211C59.1976 13.1327 59.0916 13.3448 59.0916 13.6624C59.0916 13.98 59.1976 14.1921 59.4091 14.4036C59.4097 14.508 59.6212 14.6141 59.7273 14.7201L59.7273 14.7201Z" fill="#818181"/>
</svg>
