<svg width="74" height="56" viewBox="0 0 74 56" fill="none" xmlns="http://www.w3.org/2000/svg">
<path d="M71.2105 23.3276C71.2105 22.3508 70.8225 21.4135 70.1318 20.723C69.4412 20.0325 68.5039 19.6443 67.5273 19.6443H18.4165V14.3244L14.7332 9.41328V7.36662C15.3843 7.36662 16.0092 7.1079 16.4696 6.6475C16.93 6.18709 17.1887 5.56223 17.1887 4.91108V2.45554C17.1887 1.80439 16.93 1.17953 16.4696 0.719122C16.0092 0.258716 15.3843 0 14.7332 0H3.68324C3.03209 0 2.40723 0.258716 1.94682 0.719122C1.48642 1.17953 1.2277 1.80439 1.2277 2.45554V4.91108C1.2277 5.56223 1.48642 6.18709 1.94682 6.6475C2.40723 7.1079 3.03209 7.36662 3.68324 7.36662V11.4588L7.36655 16.3699V19.6443H6.13878C5.16205 19.6443 4.22472 20.0324 3.53422 20.723C2.84373 21.4136 2.45554 22.351 2.45554 23.3276V35.6053H0V38.0608H2.45554V51.5663C2.45554 52.543 2.8436 53.4803 3.53422 54.1708C4.22485 54.8613 5.16218 55.2495 6.13878 55.2495H67.5273C68.504 55.2495 69.4413 54.8615 70.1318 54.1708C70.8223 53.4802 71.2105 52.5429 71.2105 51.5663V38.0608H73.6661V35.6053H71.2105V23.3276ZM3.68317 2.45547H14.7331V4.91101H3.68317V2.45547ZM6.13871 10.641V7.36655H12.2776V10.231L15.9609 15.1421V19.6442H9.82202V15.5521L6.13871 10.641ZM68.755 51.5657C68.755 51.8913 68.6256 52.2037 68.3954 52.4339C68.1652 52.6641 67.8528 52.7935 67.5272 52.7935H6.13871C5.4607 52.7935 4.91094 52.2437 4.91094 51.5657V23.327C4.91094 22.649 5.4607 22.0992 6.13871 22.0992H67.5272C67.8528 22.0992 68.1652 22.2286 68.3954 22.4588C68.6256 22.689 68.755 23.0014 68.755 23.327V51.5657Z" fill="#818181"/>
<path d="M60.5001 30.4402C59.6784 30.4479 58.8897 30.119 58.3165 29.5303C57.3024 28.6007 55.9765 28.0844 54.6009 28.0844C53.2251 28.0844 51.8998 28.6007 50.8857 29.5303C50.3091 30.1119 49.5248 30.4391 48.7059 30.4391C47.887 30.4391 47.1021 30.1119 46.5261 29.5303C45.5137 28.5996 44.1884 28.0834 42.8132 28.0834C41.4379 28.0834 40.1126 28.5997 39.1002 29.5303C38.5242 30.1113 37.7398 30.438 36.9215 30.438C36.1038 30.438 35.3194 30.1113 34.7434 29.5303C33.7305 28.5996 32.4052 28.0834 31.0299 28.0834C29.6542 28.0834 28.3288 28.5997 27.3165 29.5303C26.7398 30.1119 25.9555 30.4385 25.1372 30.4385C24.3189 30.4385 23.5339 30.1119 22.9579 29.5303C21.945 28.6002 20.6203 28.0838 19.245 28.0838C17.8698 28.0838 16.5451 28.6001 15.5321 29.5303C14.9571 30.1119 14.1733 30.4391 13.3555 30.4391C12.5377 30.4391 11.754 30.1119 11.1784 29.5303C10.1731 28.5898 8.84505 28.0717 7.46826 28.0834V30.5389C8.28714 30.5318 9.0732 30.8601 9.64373 31.4471C10.6555 32.3778 11.9803 32.8946 13.3555 32.8946C14.7302 32.8946 16.0549 32.3778 17.0668 31.4471C17.6434 30.8667 18.4272 30.5406 19.2449 30.5406C20.0626 30.5406 20.8465 30.8667 21.423 31.4471C22.4359 32.3784 23.7613 32.8946 25.1371 32.8946C26.5128 32.8946 27.8382 32.3783 28.8511 31.4471C29.4272 30.8667 30.2115 30.54 31.0298 30.54C31.8476 30.54 32.6319 30.8667 33.2085 31.4471C34.2209 32.3778 35.5462 32.8946 36.9214 32.8946C38.2972 32.8946 39.6225 32.3778 40.6349 31.4471C41.2115 30.8667 41.9953 30.5406 42.813 30.5406C43.6307 30.5406 44.4146 30.8667 44.9912 31.4471C46.0035 32.3778 47.3288 32.8941 48.7046 32.8941C50.0798 32.8941 51.4052 32.3778 52.4181 31.4471C52.9947 30.864 53.7807 30.5356 54.6007 30.5356C55.4213 30.5356 56.2072 30.8639 56.7839 31.4471C57.7985 32.3773 59.1244 32.8937 60.5012 32.8937C61.8775 32.8937 63.204 32.3773 64.2179 31.4471C64.7907 30.8585 65.5794 30.5301 66.4011 30.5373V28.0817C65.0231 28.0702 63.6934 28.5882 62.6859 29.5283C62.112 30.118 61.3228 30.4474 60.5001 30.4403V30.4402Z" fill="#818181"/>
</svg>
