<svg width="67" height="67" viewBox="0 0 67 67" fill="none" xmlns="http://www.w3.org/2000/svg">
<path d="M20.1007 40.2001V26.8001C20.1007 26.5039 19.9831 26.2198 19.7737 26.0104C19.5644 25.801 19.2802 25.6834 18.9841 25.6834H15.6341C13.8579 25.6854 12.1549 26.3918 10.8988 27.6481C9.64262 28.9044 8.93612 30.6073 8.93408 32.3834V40.2001C8.93408 40.4962 9.05173 40.7803 9.26111 40.9897C9.47048 41.1991 9.75463 41.3167 10.0507 41.3167H18.9841C19.2802 41.3167 19.5644 41.1991 19.7737 40.9897C19.9831 40.7803 20.1007 40.4962 20.1007 40.2001ZM17.8674 39.0834H11.1674V32.3834C11.1689 31.1989 11.64 30.0638 12.477 29.2264C13.3145 28.3894 14.4497 27.9183 15.6341 27.9167H17.8674V39.0834Z" fill="#818181"/>
<path d="M65.884 51.3667H59.5001C57.872 49.9276 55.7738 49.1334 53.6007 49.1334C51.4276 49.1334 49.3294 49.9275 47.7013 51.3667H32.3117C32.1955 50.4365 31.9328 49.5302 31.533 48.6828L47.405 8.90392C48.3123 8.80122 49.1657 8.42136 49.8502 7.81667H50.2505V11.1667C50.2505 11.4628 50.3681 11.7469 50.5775 11.9563C50.7869 12.1657 51.071 12.2833 51.3671 12.2833H52.4838C53.2819 12.2833 54.0192 12.7091 54.418 13.4C54.8168 14.0909 54.8168 14.9424 54.418 15.6333C54.0192 16.3243 53.2819 16.75 52.4838 16.75C51.8671 16.75 51.3671 17.25 51.3671 17.8667C51.3671 18.4833 51.8671 18.9833 52.4838 18.9833C54.0795 18.9833 55.5542 18.1319 56.3522 16.75C57.1498 15.3681 57.1498 13.6652 56.3522 12.2833C55.5541 10.9015 54.0794 10.05 52.4838 10.05V7.81667C53.6807 7.81667 54.7864 7.17807 55.3851 6.14167C55.9833 5.10526 55.9833 3.82806 55.3851 2.79167C54.7864 1.75526 53.6807 1.11667 52.4838 1.11667H49.8501C49.0361 0.397316 47.9871 0 46.9005 0C45.8138 0 44.7649 0.397316 43.9508 1.11667H41.3171C40.1406 1.12115 39.0524 1.74229 38.4507 2.75325C37.849 3.76424 37.8216 5.01645 38.3789 6.05284C38.9362 7.08925 39.9961 7.7572 41.1711 7.81258L26.3149 44.0245C25.7471 43.8316 25.1614 43.697 24.5667 43.6222V22.3328C24.5667 22.0367 24.449 21.7525 24.2397 21.5431C24.0303 21.3338 23.7461 21.2161 23.45 21.2161H14.5167C11.3816 21.2161 8.64723 22.7301 6.6103 25.5941C5.69105 26.8933 4.98163 28.329 4.50854 29.8489C4.50555 29.8589 4.50306 29.8688 4.50057 29.8788L2.26723 38.8121C2.2448 38.9004 2.23333 38.9916 2.23333 39.0828V51.3662H1.11667C0.500011 51.3662 0 51.8662 0 52.4828V56.9495C0 57.2456 0.117649 57.5298 0.327024 57.7392C0.536398 57.9485 0.820552 58.0662 1.11667 58.0662H10.05C10.05 61.2577 11.7529 64.2068 14.5167 65.8026C17.2804 67.3983 20.6863 67.3983 23.45 65.8026C26.2137 64.2068 27.9167 61.2577 27.9167 58.0662H44.6667C44.6667 61.2577 46.3696 64.2068 49.1333 65.8026C51.897 67.3983 55.303 67.3983 58.0667 65.8026C60.8304 64.2068 62.5333 61.2577 62.5333 58.0662H65.8833C66.1794 58.0662 66.4636 57.9485 66.673 57.7392C66.8823 57.5298 67 57.2456 67 56.9495V52.4828C67 52.1867 66.8823 51.9026 66.673 51.6932C66.4636 51.4838 66.1794 51.3662 65.8833 51.3662L65.884 51.3667ZM51.2257 3.35006H52.484C53.1006 3.35006 53.6006 3.85008 53.6006 4.46673C53.6006 5.08339 53.1006 5.5834 52.484 5.5834H51.2257C51.4142 4.85108 51.4142 4.08234 51.2257 3.35006ZM46.9006 2.2334C47.4928 2.2334 48.0611 2.4687 48.4799 2.88744C48.8986 3.30619 49.1339 3.8745 49.1339 4.46673C49.1339 5.05896 48.8986 5.62727 48.4799 6.04602C48.0611 6.46476 47.4928 6.70006 46.9006 6.70006C46.3083 6.70006 45.74 6.46476 45.3213 6.04602C44.9025 5.62727 44.6672 5.05896 44.6672 4.46673C44.6677 3.8745 44.9035 3.3072 45.3223 2.88847C45.741 2.46973 46.3083 2.23392 46.9006 2.23342L46.9006 2.2334ZM40.2006 4.46673C40.2011 3.85008 40.7006 3.35056 41.3172 3.35006H42.5755C42.387 4.08238 42.387 4.85112 42.5755 5.5834H41.3172C40.7006 5.5829 40.2011 5.08339 40.2006 4.46673ZM43.5835 7.81673H43.9509C44.3033 8.1278 44.7027 8.38155 45.1344 8.56848L30.023 46.4407C29.519 45.8938 28.9497 45.4113 28.3271 45.0045L43.5835 7.81673ZM24.567 45.8778C25.9374 46.1121 27.2017 46.7657 28.1847 47.7487C29.1678 48.7318 29.8213 49.996 30.0556 51.3665H24.8831C24.7799 51.2752 24.6742 51.1865 24.567 51.1003L24.567 45.8778ZM4.46699 44.6664H6.70032V46.8998H4.46699V44.6664ZM4.46699 49.1331H7.81699C8.1131 49.1331 8.39726 49.0155 8.60663 48.8061C8.816 48.5967 8.93365 48.3126 8.93365 48.0164V43.5498C8.93365 43.2537 8.816 42.9695 8.60663 42.7601C8.39726 42.5508 8.1131 42.4331 7.81699 42.4331H4.46699V39.2207L6.66191 30.4409C7.07518 29.1542 7.68386 27.9393 8.46606 26.8382C10.0843 24.5899 12.1202 23.4498 14.517 23.4498H22.3337V49.7878C20.7978 49.1642 19.1183 48.9817 17.4841 49.2609C15.85 49.5395 14.3266 50.2694 13.0842 51.3671H4.46699V49.1331ZM10.333 55.8331H2.23366V53.5998H11.2522C10.8455 54.2987 10.5364 55.0504 10.333 55.8331H10.333ZM18.9837 64.7664C17.2064 64.7664 15.5026 64.0606 14.2458 62.8043C12.9895 61.5476 12.2837 59.8437 12.2837 58.0664C12.2837 56.2892 12.9895 54.5854 14.2458 53.3286C15.5026 52.0723 17.2064 51.3664 18.9837 51.3664C20.7609 51.3664 22.4647 52.0723 23.7215 53.3286C24.9778 54.5853 25.6837 56.2892 25.6837 58.0664C25.6817 59.8426 24.9753 61.5456 23.719 62.8018C22.4627 64.0579 20.7597 64.7644 18.9837 64.7664ZM44.949 55.8331H27.6337C27.4303 55.0504 27.1212 54.2987 26.7144 53.5998H45.8688C45.462 54.2987 45.1529 55.0504 44.9495 55.8331H44.949ZM53.5997 64.7664C51.8225 64.7664 50.1186 64.0606 48.8618 62.8043C47.6056 61.5476 46.8997 59.8437 46.8997 58.0664C46.8997 56.2892 47.6056 54.5854 48.8618 53.3286C50.1186 52.0723 51.8225 51.3664 53.5997 51.3664C55.3769 51.3664 57.0807 52.0723 58.3375 53.3286C59.5938 54.5853 60.2997 56.2892 60.2997 58.0664C60.2977 59.8426 59.5913 61.5461 58.335 62.8018C57.0792 64.058 55.3758 64.7644 53.5997 64.7664ZM64.7663 55.8331H62.2503C62.0469 55.0504 61.7379 54.2987 61.3311 53.5998H64.7663L64.7663 55.8331Z" fill="#818181"/>
<path d="M18.984 53.6001C17.7995 53.6001 16.6634 54.0707 15.8254 54.9082C14.9879 55.7462 14.5173 56.8823 14.5173 58.0667C14.5173 59.2512 14.9879 60.3874 15.8254 61.2253C16.6634 62.0628 17.7996 62.5334 18.984 62.5334C20.1684 62.5334 21.3046 62.0628 22.1426 61.2253C22.9801 60.3873 23.4507 59.2512 23.4507 58.0667C23.4492 56.8823 22.9781 55.7471 22.141 54.9097C21.3035 54.0727 20.1684 53.6016 18.984 53.6001ZM18.984 60.3001C18.3918 60.3001 17.8235 60.0648 17.4047 59.646C16.986 59.2273 16.7507 58.659 16.7507 58.0667C16.7507 57.4745 16.986 56.9062 17.4047 56.4874C17.8235 56.0687 18.3918 55.8334 18.984 55.8334C19.5762 55.8334 20.1445 56.0687 20.5633 56.4874C20.982 56.9062 21.2173 57.4745 21.2173 58.0667C21.2168 58.659 20.981 59.2263 20.5623 59.645C20.1435 60.0637 19.5762 60.2995 18.984 60.3L18.984 60.3001Z" fill="#818181"/>
<path d="M53.6007 53.6001C52.4162 53.6001 51.2801 54.0707 50.4421 54.9082C49.6046 55.7462 49.134 56.8823 49.134 58.0667C49.134 59.2512 49.6046 60.3874 50.4421 61.2253C51.2801 62.0628 52.4163 62.5334 53.6007 62.5334C54.7851 62.5334 55.9213 62.0628 56.7593 61.2253C57.5968 60.3873 58.0674 59.2512 58.0674 58.0667C58.0659 56.8823 57.5948 55.7471 56.7577 54.9097C55.9202 54.0727 54.7851 53.6016 53.6007 53.6001ZM53.6007 60.3001C53.0085 60.3001 52.4402 60.0648 52.0214 59.646C51.6027 59.2273 51.3674 58.659 51.3674 58.0667C51.3674 57.4745 51.6027 56.9062 52.0214 56.4874C52.4402 56.0687 53.0085 55.8334 53.6007 55.8334C54.1929 55.8334 54.7612 56.0687 55.18 56.4874C55.5987 56.9062 55.834 57.4745 55.834 58.0667C55.8335 58.659 55.5977 59.2263 55.179 59.645C54.7602 60.0637 54.1929 60.2995 53.6007 60.3L53.6007 60.3001Z" fill="#818181"/>
</svg>
