<svg width="93" height="52" viewBox="0 0 93 52" fill="none" xmlns="http://www.w3.org/2000/svg">
<path d="M86.4158 18.4711H76.5463L59.7254 0.874975C59.1855 0.308478 58.4346 -0.0079673 57.6526 0.000152499H40.9305C40.1516 0.000152499 39.5202 0.63157 39.5202 1.4105V18.4711H7.9946C7.24666 18.4711 6.52968 18.7677 6.00072 19.2966C5.47184 19.8254 5.17458 20.5432 5.17458 21.291V32.5707L2.82002 32.57C2.07208 32.57 1.3551 32.8673 0.826142 33.3961C0.29726 33.925 0 34.642 0 35.39V42.0029C0 42.7509 0.29726 43.4679 0.826142 43.9968C1.35502 44.5257 2.072 44.823 2.82002 44.823H9.77133C10.1416 47.3235 11.6952 49.4922 13.9434 50.6473C16.1916 51.8024 18.8596 51.8024 21.1079 50.6473C23.3561 49.4922 24.9104 47.3235 25.2807 44.823H66.6483C67.0798 47.2615 68.6376 49.3527 70.8505 50.4636C73.0642 51.5744 75.6716 51.5744 77.8845 50.4636C80.0982 49.3527 81.6561 47.2615 82.0876 44.823H91.5904C91.9644 44.823 92.3229 44.6747 92.5877 44.4099C92.8517 44.1458 93 43.7866 93 43.4126V25.0834C93.0037 23.3338 92.3125 21.6534 91.0777 20.4136C89.8428 19.1737 88.1655 18.475 86.4158 18.4714V18.4711ZM72.6406 18.4711H53.663V8.77063H63.3355L72.6406 18.4711ZM42.3406 8.75666H45.1606V18.4151H42.3406V8.75666ZM17.4826 48.4757C16.1475 48.4757 14.8677 47.9453 13.9235 47.0012C12.9794 46.057 12.449 44.7773 12.449 43.4421C12.449 42.107 12.9794 40.8264 13.9235 39.8822C14.8677 38.9388 16.1474 38.4084 17.4826 38.4084C18.8179 38.4084 20.0984 38.9388 21.0418 39.8822C21.9859 40.8264 22.5163 42.1068 22.5163 43.4421C22.5163 44.7772 21.9859 46.057 21.0418 47.0012C20.0983 47.9453 18.8179 48.4757 17.4826 48.4757ZM74.3741 48.4757C73.039 48.4757 71.7584 47.9453 70.815 47.0012C69.8708 46.057 69.3405 44.7773 69.3405 43.4421C69.3405 42.107 69.8708 40.8264 70.815 39.8822C71.7584 38.9388 73.0389 38.4084 74.3741 38.4084C75.7093 38.4084 76.9891 38.9388 77.9332 39.8822C78.8774 40.8264 79.4077 42.1068 79.4077 43.4421C79.4041 44.7757 78.8722 46.054 77.9295 46.9966C76.9861 47.9401 75.7077 48.4719 74.3742 48.4756L74.3741 48.4757ZM82.0868 42.0325V42.0318C81.6553 39.594 80.0974 37.5021 77.8838 36.3912C75.6708 35.2803 73.0634 35.2803 70.8497 36.3912C68.6368 37.5021 67.0789 39.594 66.6475 42.0318H25.2082C24.8379 39.5313 23.2843 37.3625 21.0361 36.2074C18.7871 35.0523 16.1198 35.0523 13.8708 36.2074C11.6226 37.3626 10.0691 39.5313 9.69878 42.0318H2.64928V35.5039H5.10259C5.8498 35.5039 6.56752 35.2066 7.09648 34.6777C7.62536 34.1496 7.92262 33.4319 7.92262 32.6838H67.9147C68.6936 32.6838 69.3251 32.0524 69.3251 31.2742C69.3251 30.4953 68.6936 29.8639 67.9147 29.8639H7.96416V21.404H45.1019C45.8498 21.404 46.5668 21.1075 47.0957 20.5786C47.6246 20.0497 47.9219 19.332 47.9219 18.5847V8.81338C47.9219 8.06544 47.6246 7.34846 47.0957 6.8195C46.5669 6.29062 45.8499 5.99336 45.1019 5.99336H42.2818V2.82078H57.6783L60.6671 5.93652H53.6176V5.93726C52.8697 5.93726 52.1527 6.23378 51.6238 6.76266C51.0948 7.29155 50.7976 8.00926 50.7976 8.75711V18.4576C50.7976 19.2048 51.0949 19.9226 51.6238 20.4515C52.1526 20.9805 52.8696 21.2769 53.6176 21.2769H86.4141C87.4113 21.2806 88.3666 21.6789 89.0717 22.3841C89.7768 23.0893 90.1744 24.0445 90.1782 25.0417V28.9895H86.9776C85.4515 28.9895 84.0411 29.8038 83.2784 31.1255C82.5149 32.4474 82.5149 34.076 83.2784 35.3979C84.0411 36.7197 85.4515 37.5339 86.9776 37.5339H90.1782V42.0172L82.0868 42.0325ZM90.18 34.7292L86.9787 34.7285C86.1769 34.7285 85.527 34.0779 85.527 33.2761C85.527 32.4743 86.1769 31.8237 86.9787 31.8237H90.1792L90.18 34.7292Z" fill="#818181"/>
</svg>
