<svg width="71" height="71" viewBox="0 0 71 71" fill="none" xmlns="http://www.w3.org/2000/svg">
<path d="M67.5642 34.3555H62.5962L61.2659 25.4894C60.841 22.6645 58.4603 20.6136 55.6042 20.6136H29.1377C27.1769 20.6136 25.4583 21.5937 24.4243 23.1137C23.1406 21.5561 21.2155 20.6136 19.128 20.6136H4.58064C2.05431 20.6136 0 22.6679 0 25.1942V53.8225C0 55.7164 1.54121 57.2581 3.43564 57.2581H18.3228V60.6938C18.3228 62.185 19.2836 63.4444 20.6133 63.9184V66.4195C20.6133 68.9459 22.6677 71.0002 25.194 71.0002H27.4845C30.0108 71.0002 32.0651 68.9459 32.0651 66.4195V64.129H52.678V66.4195C52.678 68.9459 54.7323 71.0002 57.2586 71.0002H59.5491C62.0755 71.0002 64.1298 68.9459 64.1298 66.4195V63.9184C65.4595 63.4445 66.4203 62.1845 66.4203 60.6938L66.4193 46.9514C66.4193 45.6573 65.9716 44.4757 65.2446 43.5158H67.5644C69.4583 43.5158 71 41.9746 71 40.0802V37.7896C71 35.8957 69.4588 34.3545 67.5644 34.3545L67.5642 34.3555ZM20.6128 50.3876H23.3556C25.0721 50.3876 26.6847 51.0493 27.8996 52.22C27.7807 52.4444 27.6842 52.6806 27.6168 52.9302C27.2201 52.7708 26.7907 52.6781 26.3386 52.6781C25.4555 52.6781 24.6576 53.0228 24.048 53.5716C23.4389 53.0219 22.6405 52.6781 21.7575 52.6781C21.3544 52.6781 20.972 52.7604 20.6125 52.8886L20.6128 50.3876ZM20.6128 56.1137C20.6128 55.4818 21.1259 54.9687 21.7579 54.9687C22.3898 54.9687 22.9029 55.4818 22.9029 56.1137C22.9029 56.7457 22.3898 57.2588 21.7579 57.2588C21.1259 57.2588 20.6128 56.7457 20.6128 56.1137ZM25.1935 56.1137C25.1935 55.4818 25.7066 54.9687 26.3385 54.9687C26.9705 54.9687 27.4835 55.4818 27.4835 56.1137C27.4835 56.7457 26.9704 57.2588 26.3385 57.2588C25.7066 57.2588 25.1935 56.7457 25.1935 56.1137ZM29.7741 56.1137V53.8232C29.7741 53.1913 30.2872 52.6782 30.9192 52.6782H32.0642V57.2589H29.5631C29.6913 56.8993 29.7741 56.5169 29.7741 56.1138L29.7741 56.1137ZM34.3548 52.6781H36.6453V57.2587H34.3548V52.6781ZM38.9354 52.6781H41.2259V57.2587H38.9354V52.6781ZM43.5161 52.6781H45.8066V57.2587H43.5161V52.6781ZM48.0967 52.6781H50.3872V57.2587H48.0967V52.6781ZM52.6773 52.6781H53.8224C54.4543 52.6781 54.9674 53.1912 54.9674 53.8231V56.1136C54.9674 56.5168 55.0496 56.8991 55.1779 57.2587H52.6773L52.6773 52.6781ZM57.258 56.1137C57.258 55.4818 57.7711 54.9687 58.403 54.9687C59.035 54.9687 59.548 55.4818 59.548 56.1137C59.548 56.7457 59.035 57.2588 58.403 57.2588C57.7711 57.2588 57.258 56.7457 57.258 56.1137ZM61.8386 56.1137C61.8386 55.4818 62.3517 54.9687 62.9837 54.9687C63.6156 54.9687 64.1287 55.4818 64.1287 56.1137C64.1287 56.7457 63.6156 57.2588 62.9837 57.2588C62.3517 57.2588 61.8386 56.7457 61.8386 56.1137ZM62.9837 52.6781C62.1006 52.6781 61.3027 53.0228 60.6932 53.5715C60.084 53.0218 59.2856 52.6781 58.4026 52.6781C57.9505 52.6781 57.5211 52.7707 57.1249 52.9302C57.0575 52.6796 56.961 52.4434 56.8411 52.219C58.0585 51.0497 59.671 50.3876 61.3866 50.3876H64.1289V52.8887C63.7693 52.7604 63.387 52.6782 62.9839 52.6782L62.9837 52.6781ZM64.1287 48.0975H61.3859C59.0256 48.0975 56.8063 49.0206 55.1561 50.6579C54.7465 50.4841 54.2953 50.3875 53.8223 50.3875H30.9197C30.4467 50.3875 29.9955 50.4836 29.5855 50.6579C27.9344 49.0206 25.716 48.0975 23.3562 48.0975H20.6134V46.9524C20.6134 45.0585 22.1546 43.5168 24.049 43.5168H60.6939C62.5879 43.5168 64.1296 45.058 64.1296 46.9524L64.1287 48.0975ZM13.7415 37.7912V38.9362H6.87083V27.4844H17.8804C18.3544 27.4844 18.7852 27.782 18.9521 28.2278L21.2506 34.3556H17.1771C15.2828 34.3556 13.7415 35.8968 13.7415 37.7912L13.7415 37.7912ZM16.032 37.7912C16.032 37.1592 16.5451 36.6461 17.177 36.6461H21.8013L21.1144 41.2268L17.177 41.2263C16.5451 41.2263 16.032 40.7132 16.032 40.0813V37.7912ZM28.8031 41.2263L30.7658 27.484H53.9739L55.9366 41.2263H28.8031ZM29.1364 22.9032H55.603C57.3161 22.9032 58.7454 24.1344 58.9994 25.8292L61.3197 41.2882C61.1112 41.2654 60.9072 41.2253 60.6932 41.2253H58.2516L56.2428 27.1597C56.0828 26.0384 55.1067 25.1935 53.9745 25.1935H30.7663C29.6337 25.1935 28.658 26.0384 28.499 27.1597L26.4892 41.2253H24.0476C23.8336 41.2253 23.6296 41.2654 23.4211 41.2882L25.7414 25.8292C25.9945 24.1344 27.4238 22.9032 29.1368 22.9032H29.1364ZM4.57929 22.9032H19.1267C20.9626 22.9032 22.6138 23.9933 23.3374 25.6792L23.4186 25.8684L22.5885 31.4019L21.0963 27.4251C20.5971 26.0904 19.3039 25.1939 17.8796 25.1939H6.87002C5.60712 25.1939 4.57951 26.221 4.57951 27.4844V38.9362L2.2895 38.9357V25.1934C2.2895 23.93 3.31667 22.9029 4.57951 22.9029L4.57929 22.9032ZM2.28928 53.8225V41.2257H13.9515C14.4255 42.5554 15.6855 43.5162 17.1762 43.5162H19.4965C18.769 44.4755 18.3213 45.6577 18.3213 46.9518V54.9681L3.4341 54.9676C2.80165 54.9676 2.28907 54.4545 2.28907 53.8226L2.28928 53.8225ZM29.7726 66.4193C29.7726 67.6822 28.7455 68.7098 27.4821 68.7098H25.1916C23.9287 68.7098 22.9011 67.6826 22.9011 66.4193V64.1288H29.7723L29.7726 66.4193ZM59.547 68.7093H57.2565C55.9936 68.7093 54.966 67.6821 54.966 66.4188V64.1283H61.8372V66.4188C61.8377 67.6822 60.8105 68.7093 59.5471 68.7093H59.547ZM62.9827 61.8386H21.757C21.125 61.8386 20.612 61.3255 20.612 60.6936V59.5486H64.1287V60.6936C64.1282 61.3256 63.6156 61.8386 62.9831 61.8386H62.9827ZM68.7083 40.0809C68.7083 40.7129 68.1952 41.2259 67.5633 41.2259H63.6259L62.939 36.6453H67.5633C68.1952 36.6453 68.7083 37.1584 68.7083 37.7903V40.0809Z" fill="#818181"/>
<path d="M4.58081 43.5171H9.16146V45.8076H4.58081V43.5171Z" fill="#818181"/>
<path d="M9.97044 14.5516L8.351 12.9322L6.87065 14.413V0H4.58014V14.413L3.09928 12.9322L1.48022 14.5516L5.72501 18.7964L9.97044 14.5516Z" fill="#818181"/>
<path d="M19.1321 14.5516L17.5126 12.9322L16.0323 14.413V0H13.7418V14.413L12.2609 12.9322L10.6418 14.5516L14.8866 18.7964L19.1321 14.5516Z" fill="#818181"/>
<path d="M28.2937 14.5516L26.6742 12.9322L25.1939 14.413V0H22.9034V14.413L21.4225 12.9322L19.8035 14.5516L24.0483 18.7964L28.2937 14.5516Z" fill="#818181"/>
</svg>
