<svg width="59" height="59" viewBox="0 0 59 59" fill="none" xmlns="http://www.w3.org/2000/svg">
<path d="M0.5 29.5002C0.5 13.51 13.5098 0.5 29.5 0.5C45.4902 0.5 58.5 13.51 58.5 29.5002C58.5 45.4903 45.4902 58.5 29.5 58.5C13.5098 58.5 0.5 45.4903 0.5 29.5002ZM4.86364 29.5002C4.86364 43.0851 15.9149 54.1364 29.5 54.1364C43.0849 54.1364 54.1364 43.0851 54.1364 29.5002C54.1364 15.9153 43.0851 4.86364 29.5 4.86364C15.9149 4.86364 4.86364 15.9153 4.86364 29.5002Z" fill="#3C3C3C" stroke="white"/>
<path d="M26.4248 16.0925C26.4248 14.3958 27.805 13.0151 29.4999 13.0151C31.1947 13.0151 32.5749 14.3958 32.5749 16.0925C32.5749 17.787 31.1951 19.1666 29.4999 19.1666C27.8046 19.1666 26.4248 17.787 26.4248 16.0925Z" fill="#3C3C3C" stroke="white"/>
<path d="M27.3184 27.7121C27.3184 26.5072 28.2952 25.5303 29.5002 25.5303C30.7051 25.5303 31.682 26.5072 31.682 27.7121V43.803C31.682 45.0079 30.7051 45.9848 29.5002 45.9848C28.2952 45.9848 27.3184 45.0079 27.3184 43.803V27.7121Z" fill="#3C3C3C" stroke="white"/>
</svg>
