<svg width="60" height="61" viewBox="0 0 60 61" fill="none" xmlns="http://www.w3.org/2000/svg">
<path d="M58.1224 27.1288H34.373C33.338 27.1288 32.498 26.2888 32.498 25.2538C32.498 24.2189 33.338 23.3789 34.373 23.3789H58.1224C59.1574 23.3789 59.9973 24.2189 59.9973 25.2538C59.9973 26.2888 59.1574 27.1288 58.1224 27.1288Z" fill="#3C3C3C"/>
<path d="M48.7495 36.5038C48.2693 36.5038 47.7896 36.3211 47.4243 35.954C46.6919 35.2211 46.6919 34.0337 47.4243 33.3013L55.4743 25.2518L47.4243 17.2018C46.6919 16.4694 46.6919 15.282 47.4243 14.5496C48.1572 13.8168 49.3446 13.8168 50.077 14.5496L59.4517 23.9243C60.1841 24.6567 60.1841 25.8442 59.4517 26.5765L50.077 35.9513C49.7094 36.3211 49.2297 36.5038 48.7495 36.5038Z" fill="#3C3C3C"/>
<path d="M19.9995 60.1973C19.4644 60.1973 18.9568 60.1223 18.4496 59.9648L3.40474 54.9524C1.35768 54.2374 0 52.33 0 50.1978V5.19921C0 2.44173 2.24251 0.199219 5 0.199219C5.53465 0.199219 6.04229 0.27429 6.54994 0.431755L21.5943 5.44411C23.6418 6.15912 24.9991 8.06656 24.9991 10.1988V55.1973C24.9991 57.9548 22.757 60.1973 19.9995 60.1973ZM5 3.9491C4.31246 3.9491 3.74988 4.51168 3.74988 5.19921V50.1978C3.74988 50.7302 4.10738 51.225 4.61732 51.4026L19.5917 56.3925C19.6992 56.4273 19.8393 56.4475 19.9995 56.4475C20.6871 56.4475 21.2492 55.8849 21.2492 55.1973V10.1988C21.2492 9.66639 20.8917 9.17156 20.3817 8.99396L5.40739 4.00403C5.29982 3.96924 5.15975 3.9491 5 3.9491Z" fill="#3C3C3C"/>
<path d="M38.1236 20.1987C37.0886 20.1987 36.2487 19.3588 36.2487 18.3238V7.07416C36.2487 5.35165 34.8466 3.9491 33.1241 3.9491H4.99994C3.96497 3.9491 3.125 3.10913 3.125 2.07416C3.125 1.03919 3.96497 0.199219 4.99994 0.199219H33.1241C36.9165 0.199219 39.9985 3.2817 39.9985 7.07416V18.3238C39.9985 19.3588 39.1586 20.1987 38.1236 20.1987Z" fill="#3C3C3C"/>
<path d="M33.1249 50.5034H23.1249C22.09 50.5034 21.25 49.6635 21.25 48.6285C21.25 47.5935 22.09 46.7536 23.1249 46.7536H33.1249C34.8474 46.7536 36.2495 45.351 36.2495 43.6285V32.3788C36.2495 31.3439 37.0895 30.5039 38.1245 30.5039C39.1594 30.5039 39.9994 31.3439 39.9994 32.3788V43.6285C39.9994 47.421 36.9174 50.5034 33.1249 50.5034Z" fill="#3C3C3C"/>
</svg>
