<svg width="54" height="54" viewBox="0 0 54 54" fill="none" xmlns="http://www.w3.org/2000/svg">
<path d="M24.7148 54C20.0643 54 16.2773 50.2155 16.2773 45.5625C16.2773 44.631 17.0333 43.875 17.9648 43.875C18.8963 43.875 19.6523 44.631 19.6523 45.5625C19.6523 48.3549 21.9249 50.625 24.7148 50.625C27.5048 50.625 29.7773 48.3549 29.7773 45.5625C29.7773 44.631 30.5333 43.875 31.4648 43.875C32.3963 43.875 33.1523 44.631 33.1523 45.5625C33.1523 50.2155 29.3658 54 24.7148 54Z" fill="#3C3C3C"/>
<path d="M43.2772 47.25H6.15221C3.98103 47.25 2.21484 45.4838 2.21484 43.3126C2.21484 42.1603 2.71664 41.0694 3.59171 40.32C3.64815 40.2705 3.70871 40.2256 3.77174 40.1848C7.07465 37.3026 8.96484 33.1559 8.96484 28.7773V22.4999C8.96484 13.8152 16.0321 6.75 24.7147 6.75C25.0748 6.75 25.4641 6.75659 25.8242 6.81757C26.7442 6.97041 27.3654 7.84135 27.2122 8.75926C27.0593 9.67717 26.1727 10.2984 25.2705 10.1452C25.0904 10.1159 24.8927 10.125 24.7147 10.125C17.893 10.125 12.3398 15.6757 12.3398 22.4999V28.7773C12.3398 34.2135 9.95691 39.3571 5.8082 42.8871C5.77441 42.9142 5.74516 42.939 5.70891 42.9637C5.64835 43.0403 5.58984 43.1573 5.58984 43.3126C5.58984 43.6183 5.84651 43.875 6.15221 43.875H43.2772C43.5833 43.875 43.84 43.6183 43.84 43.3126C43.84 43.1548 43.7815 43.0403 43.7184 42.9637C43.6847 42.939 43.6554 42.9142 43.6216 42.8871C39.4704 39.3547 37.09 34.2135 37.09 28.7773V26.3252C37.09 25.3937 37.846 24.6377 38.7775 24.6377C39.709 24.6377 40.465 25.3937 40.465 26.3252V28.7773C40.465 33.1584 42.3572 37.3071 45.6647 40.1918C45.7252 40.2322 45.7837 40.2751 45.8377 40.3224C46.7132 41.0694 47.215 42.1603 47.215 43.3126C47.215 45.4838 45.4488 47.25 43.2772 47.25Z" fill="#3C3C3C"/>
<path d="M40.465 22.4999C34.2617 22.4999 29.2148 17.4534 29.2148 11.2501C29.2148 5.04684 34.2617 0 40.465 0C46.6683 0 51.7147 5.04684 51.7147 11.2501C51.7147 17.4534 46.6683 22.4999 40.465 22.4999ZM40.465 3.375C36.1222 3.375 32.5898 6.90738 32.5898 11.2501C32.5898 15.5925 36.1222 19.1249 40.465 19.1249C44.8073 19.1249 48.3397 15.5925 48.3397 11.2501C48.3397 6.90738 44.8073 3.375 40.465 3.375Z" fill="#3C3C3C"/>
</svg>
