<svg width="64" height="62" viewBox="0 0 64 62" fill="none" xmlns="http://www.w3.org/2000/svg">
<path d="M50.8391 0.9375H13.161C5.904 0.9375 0 6.8415 0 14.0985C0 21.3555 5.904 27.2595 13.161 27.2595H22.7439V37.8924L22.276 37.4999C19.9631 35.559 16.3439 35.7167 14.2087 37.8521C11.9712 40.0896 12.1178 43.6457 14.5509 45.6872L22.7437 52.562V59.1875C22.7437 60.223 23.5833 61.0625 24.6187 61.0625H47.1188C48.1543 61.0625 48.9938 60.223 48.9938 59.1875V38.118C48.9938 35.286 46.8745 32.8862 44.0641 32.5361L33.9938 31.2815V27.2593H50.8391C58.0961 27.2593 64 21.3553 64 14.0983C64 6.84125 58.0961 0.9375 50.8391 0.9375ZM26.4937 57.3125V53.5625H45.2438V57.3125H26.4937ZM43.6006 36.2574C44.5374 36.3741 45.2439 37.174 45.2439 38.118V49.8125H25.3013L16.9613 42.8145C16.221 42.1934 16.1761 41.188 16.8604 40.5036C17.6289 39.7352 19.0331 39.674 19.8656 40.3725L23.4136 43.3496C24.6306 44.3706 26.4939 43.5045 26.4939 41.9132V17.9375C26.4939 16.9036 27.335 16.0625 28.3689 16.0625C29.4028 16.0625 30.2439 16.9036 30.2439 17.9375V32.9375C30.2439 33.8834 30.9485 34.6811 31.8871 34.7981L43.6006 36.2574ZM50.8391 23.5094H33.9938V17.9375C33.9938 14.8359 31.4704 12.3125 28.3687 12.3125C25.2671 12.3125 22.7437 14.8359 22.7437 17.9375V23.5094H13.1609C7.97175 23.5094 3.75 19.2876 3.75 14.0985C3.75 8.90938 7.97175 4.6875 13.161 4.6875H50.8391C56.0283 4.6875 60.25 8.90925 60.25 14.0985C60.25 19.2878 56.0283 23.5094 50.8391 23.5094Z" fill="#3C3C3C"/>
</svg>
