<svg width="59" height="59" viewBox="0 0 59 59" fill="none" xmlns="http://www.w3.org/2000/svg">
<path d="M55.0591 23.1615H49.7293C49.1914 23.1551 48.6773 22.9365 48.2995 22.5528C47.9222 22.1691 47.7111 21.6522 47.7131 21.1138C47.7151 20.5755 47.9298 20.0598 48.3103 19.6789L52.0835 15.9057C52.6322 15.3542 52.9399 14.6083 52.9399 13.8306C52.9399 13.0533 52.6322 12.307 52.0835 11.7559L47.2725 6.94491H47.2729C46.7146 6.41014 45.9711 6.11114 45.1978 6.11114C44.4248 6.11114 43.6814 6.41014 43.1231 6.94491L39.3212 10.6899C38.9379 11.0728 38.4187 11.2875 37.8771 11.2867C37.3355 11.2863 36.8163 11.0704 36.4338 10.6871C36.0517 10.3034 35.8374 9.78377 35.8385 9.24227V3.94109C35.8385 3.16497 35.5316 2.42031 34.9849 1.86955C34.4382 1.31848 33.6963 1.00596 32.9202 1H26.0799C25.2998 1 24.5519 1.30973 24.0004 1.86159C23.4486 2.41307 23.1388 3.16098 23.1388 3.94107V9.27086C23.1269 9.80245 22.9074 10.309 22.5273 10.6815C22.1476 11.0541 21.6371 11.2632 21.1051 11.2648C20.5727 11.2664 20.061 11.06 19.6789 10.6899L15.9057 6.91667C15.3475 6.3815 14.604 6.08291 13.8306 6.08291C13.0576 6.08291 12.3142 6.3815 11.7559 6.91667L6.94491 11.7277V11.7273C6.39662 12.2787 6.08847 13.0246 6.08847 13.8024C6.08847 14.5797 6.39661 15.326 6.94491 15.8771L10.6899 19.6789C11.0728 20.0622 11.2875 20.5815 11.2867 21.1231C11.2863 21.6646 11.0704 22.1839 10.6871 22.5664C10.3034 22.9485 9.78377 23.1628 9.24227 23.1616H3.94109C3.16497 23.1616 2.42031 23.4685 1.86955 24.0152C1.31848 24.5619 1.00596 25.3038 1 26.08V32.9202C1 33.7003 1.30973 34.4482 1.86159 34.9997C2.41307 35.5516 3.16098 35.8613 3.94107 35.8613H9.27086C9.67681 35.8538 10.0756 35.9702 10.4139 36.1953C10.7519 36.4203 11.0135 36.7432 11.163 37.1209C11.3196 37.4919 11.3582 37.9022 11.2735 38.2958C11.1888 38.6894 10.9853 39.0473 10.6898 39.3212L6.91665 43.0944C6.36797 43.6459 6.06022 44.3917 6.06022 45.1695C6.06022 45.9468 6.36796 46.6931 6.91665 47.2442L11.7276 52.0552H11.7272C12.2855 52.5899 13.029 52.8889 13.8023 52.8889C14.5753 52.8889 15.3187 52.5899 15.877 52.0552L19.6789 48.3102C20.0622 47.9273 20.5815 47.7126 21.123 47.7134C21.6646 47.7138 22.1839 47.9297 22.5664 48.3129C22.9485 48.6966 23.1628 49.2163 23.1616 49.7578V55.0872C23.1691 55.8585 23.4793 56.5956 24.0252 57.1408C24.5711 57.6855 25.309 57.994 26.08 58H32.9203C33.7004 58 34.4483 57.6903 34.9998 57.1384C35.5516 56.5869 35.8614 55.839 35.8614 55.0589V49.7291C35.8538 49.3232 35.9703 48.9244 36.1953 48.5861C36.4204 48.2481 36.7432 47.9865 37.1209 47.837C37.4927 47.6704 37.907 47.6239 38.3062 47.7034C38.7058 47.7833 39.0704 47.9853 39.3499 48.2815L43.1231 52.0547V52.0551C43.6814 52.5899 44.4249 52.8889 45.1978 52.8889C45.9712 52.8889 46.7146 52.5899 47.2729 52.0551L52.0839 47.2441H52.0835C52.6322 46.6931 52.9399 45.9468 52.9399 45.1694C52.9399 44.3917 52.6322 43.6458 52.0835 43.0943L48.3103 39.3212C47.9274 38.9379 47.7127 38.4186 47.7135 37.877C47.7139 37.3355 47.9298 36.8162 48.3131 36.4337C48.6968 36.0516 49.2165 35.8373 49.7579 35.8385H55.0873C55.8587 35.8309 56.5958 35.5208 57.1409 34.9749C57.6857 34.429 57.9942 33.6911 58.0002 32.9201V26.0798C57.9958 25.3033 57.6837 24.5601 57.1322 24.0134C56.5811 23.4663 55.8357 23.1602 55.0591 23.1614L55.0591 23.1615ZM55.8857 32.8916H55.8853C55.8869 33.111 55.8002 33.3222 55.6452 33.4776C55.4897 33.6331 55.2786 33.7194 55.0591 33.7182H49.7293C48.6264 33.7186 47.5687 34.1571 46.7887 34.9373C46.009 35.7178 45.5708 36.7757 45.5708 37.8787C45.5704 38.982 46.0085 40.04 46.7882 40.8201L50.5901 44.5877C50.9126 44.9106 50.9126 45.4338 50.5901 45.7562L45.7791 50.5556H45.7795C45.4567 50.8781 44.9334 50.8781 44.611 50.5556L40.8379 46.7824H40.8375C40.0574 46.0027 38.9993 45.5646 37.8961 45.5646C36.7931 45.5646 35.7352 46.0027 34.9547 46.7828C34.1746 47.5625 33.736 48.6206 33.7356 49.7235V55.0529C33.7368 55.2728 33.6505 55.4839 33.495 55.639C33.3396 55.7944 33.1284 55.8811 32.909 55.8795H26.0802C25.8607 55.8811 25.6496 55.7944 25.4941 55.639C25.3391 55.4839 25.2524 55.2728 25.254 55.0529V49.7179C25.2639 48.8925 25.0238 48.0838 24.5649 47.3979C24.1061 46.7121 23.4497 46.1813 22.6831 45.8759C21.9245 45.5563 21.0871 45.4712 20.2793 45.6318C19.4718 45.792 18.7306 46.1908 18.1518 46.7765L14.3786 50.5497V50.5501C14.0557 50.8725 13.5325 50.8725 13.2101 50.5501L8.4449 45.7451C8.12244 45.4222 8.12244 44.899 8.4449 44.5766L12.2181 40.8034V40.803C13.0002 40.0249 13.4399 38.9673 13.4407 37.864C13.4411 36.7606 13.0022 35.7027 12.2209 34.9233C11.4396 34.1444 10.3804 33.7086 9.27709 33.7122H3.94771C3.72784 33.7138 3.51671 33.6272 3.36165 33.4721C3.2062 33.3166 3.11952 33.1055 3.1211 32.886V26.0799C3.11951 25.8605 3.20619 25.6493 3.36165 25.4939C3.51671 25.3388 3.72785 25.2521 3.94771 25.2537H9.27709C10.38 25.2529 11.438 24.8144 12.2178 24.0343C12.9979 23.2543 13.436 22.1962 13.436 21.093C13.436 19.99 12.9979 18.932 12.2182 18.1516L8.445 14.3784C8.12254 14.0555 8.12254 13.5323 8.445 13.2099L13.2556 8.41049C13.5784 8.08804 14.1017 8.08804 14.4241 8.41049L18.1973 12.1837H18.1977C18.9777 12.9634 20.0358 13.4015 21.139 13.4015C22.242 13.4015 23.3 12.9634 24.0804 12.1833C24.8605 11.4036 25.2991 10.3455 25.2995 9.24259V3.91871C25.2983 3.69924 25.3846 3.4881 25.5401 3.33265C25.6955 3.17719 25.9067 3.09051 26.1261 3.0921H32.9207C33.1402 3.09051 33.3513 3.17718 33.5068 3.33265C33.6618 3.4881 33.7485 3.69924 33.7469 3.91871V9.24809C33.7477 10.3514 34.1863 11.409 34.9663 12.1892C35.7464 12.9689 36.8045 13.407 37.9077 13.407C39.0107 13.407 40.0686 12.9693 40.8491 12.1896L44.6223 8.41039C44.9451 8.08794 45.4684 8.08794 45.7908 8.41039L50.5902 13.221C50.9126 13.5438 50.9126 14.0671 50.5902 14.3895L46.817 18.1627V18.163C46.0373 18.9431 45.5991 20.0012 45.5991 21.1044C45.5991 22.2074 46.0373 23.2653 46.8174 24.0458C47.5971 24.8259 48.6551 25.2645 49.7581 25.2649H55.0935C55.3109 25.2637 55.5205 25.3484 55.6755 25.5015C55.8302 25.6542 55.9185 25.8625 55.9197 26.08V32.8917H55.8855L55.8857 32.8916Z" fill="#3C3C3C" stroke="#0037A6" stroke-width="1.58"/>
<path d="M29.4991 19.998C26.9811 19.9996 24.5668 21.0008 22.7872 22.7821C21.0076 24.5634 20.008 26.9784 20.0088 29.4959C20.0092 32.0139 21.0095 34.4286 22.79 36.209C24.5704 37.9894 26.9851 38.9898 29.503 38.9902C32.0206 38.991 34.4356 37.9914 36.2169 36.2117C37.9981 34.4321 38.9993 32.0179 39.0009 29.4999C39.0009 26.9799 37.9998 24.5629 36.2181 22.7809C34.4361 20.9992 32.0191 19.998 29.4991 19.998ZM29.4991 36.9097C27.5337 36.9097 25.6491 36.1288 24.2594 34.7392C22.8699 33.3496 22.089 31.465 22.089 29.4996C22.089 27.5342 22.8699 25.6497 24.2594 24.26C25.649 22.8704 27.5337 22.0895 29.4991 22.0895C31.4644 22.0895 33.349 22.8704 34.7387 24.26C36.1282 25.6496 36.9091 27.5342 36.9091 29.4996C36.9091 31.465 36.1282 33.3495 34.7387 34.7392C33.3491 36.1288 31.4644 36.9097 29.4991 36.9097Z" fill="#3C3C3C" stroke="#0037A6" stroke-width="1.58"/>
</svg>
