<svg width="43" height="43" viewBox="0 0 43 43" fill="none" xmlns="http://www.w3.org/2000/svg">
<path d="M24.8275 3.95151L28.466 11.4297C28.9877 12.4954 29.9962 13.2246 31.1533 13.3726L37.9679 14.2642H37.9685C38.8639 14.3854 39.6783 14.8567 40.2406 15.5785C40.803 16.3003 41.0696 17.2167 40.9844 18.1351C40.8992 19.0534 40.4683 19.9026 39.7835 20.5032L34.4869 25.0934C34.0055 25.5075 33.6427 26.0465 33.437 26.654C33.2312 27.2608 33.1898 27.9136 33.3177 28.5427L34.9756 36.7073H34.975C35.1601 37.6144 34.9927 38.5595 34.507 39.3416C34.0219 40.1244 33.2574 40.6839 32.3761 40.9009C31.4941 41.1179 30.5647 40.9755 29.7838 40.5042L23.2303 36.5736C22.6934 36.2509 22.0817 36.0806 21.459 36.0806C20.8364 36.0806 20.2247 36.2509 19.6878 36.5736L13.152 40.5042C12.3711 40.9755 11.4417 41.1179 10.5597 40.9009C9.67782 40.6839 8.91326 40.1243 8.4282 39.3416C7.94309 38.5595 7.77511 37.6144 7.96014 36.7073L9.61812 28.5427C9.74594 27.9135 9.70456 27.2608 9.49822 26.654C9.29249 26.0465 8.92972 25.5075 8.44885 25.0934L3.21311 20.5567C2.52715 19.9536 2.09743 19.1018 2.01463 18.1804C1.93185 17.2596 2.2027 16.342 2.76997 15.6214C3.33725 14.9008 4.1565 14.4333 5.0543 14.3176L12.6808 13.426C13.9152 13.2774 14.9785 12.4692 15.4727 11.3053L18.5008 4.1747C18.8484 3.33598 19.4972 2.66517 20.3141 2.29956C21.1303 1.9346 22.053 1.90165 22.8924 2.20878C23.7311 2.51592 24.4237 3.13949 24.8273 3.95148L24.8275 3.95151Z" stroke="#3C3C3C" stroke-width="4" stroke-miterlimit="10"/>
</svg>
