<svg width="57" height="57" viewBox="0 0 57 57" fill="none" xmlns="http://www.w3.org/2000/svg">
<g clip-path="url(#clip0_74_2382)">
<path d="M6.04883 0V57H39.2854L50.9511 45.3343V0L6.04883 0ZM9.38867 3.33984H47.6113V42.2676H36.2186V53.6602H9.38856V3.33984H9.38867ZM45.9546 45.6075L39.5585 52.0036V45.6075H45.9546Z" fill="#3C3C3C"/>
<path d="M21.375 10.2051H35.625V13.5449H21.375V10.2051Z" fill="#3C3C3C"/>
<path d="M14.8438 18.5176H42.1562V21.8574H14.8438V18.5176Z" fill="#3C3C3C"/>
<path d="M14.8438 25.6426H42.1562V28.9824H14.8438V25.6426Z" fill="#3C3C3C"/>
<path d="M14.8438 32.7676H42.1562V36.1074H14.8438V32.7676Z" fill="#3C3C3C"/>
<path d="M14.8438 42.2676H18.3505V45.6074H14.8438V42.2676Z" fill="#3C3C3C"/>
<path d="M21.6904 42.2676H28.5001V45.6074H21.6904V42.2676Z" fill="#3C3C3C"/>
</g>
<defs>
<clipPath id="clip0_74_2382">
<rect width="57" height="57" fill="white"/>
</clipPath>
</defs>
</svg>
