<svg width="65" height="49" viewBox="0 0 65 49" fill="none" xmlns="http://www.w3.org/2000/svg">
<path d="M32.5003 0.000756572C27.4428 0.000756572 22.3583 1.92969 18.5023 5.78566C15.6346 8.65338 13.8963 12.2102 13.159 15.9197C5.67627 17.3711 0 23.906 0 31.7937C0 40.7431 7.30026 48.0437 16.25 48.0437H50.8696C58.6612 48.0437 65 41.705 65 33.9133C65 26.5598 59.335 20.5739 52.1501 19.9153C52.1832 14.8007 50.3665 9.67582 46.4756 5.7849C42.6237 1.93196 37.5578 0 32.5004 0L32.5003 0.000756572ZM32.5003 4.24014C36.4838 4.24014 40.4284 5.72106 43.4737 8.76629C46.9925 12.2852 48.4813 17.0655 47.9338 21.6376H47.9333C47.8575 22.2403 48.0437 22.8465 48.4449 23.3023C48.8461 23.7582 49.4237 24.0204 50.0308 24.0219H50.8696C56.3859 24.0219 60.7606 28.3968 60.7606 33.9129C60.7606 39.4292 56.3858 43.804 50.8696 43.804H16.25C9.59144 43.804 4.23928 38.4513 4.23928 31.7932C4.23928 25.5052 9.02117 20.3828 15.1461 19.8263V19.8268C15.6266 19.7799 16.0765 19.571 16.4215 19.2334C16.767 18.8963 16.9868 18.4513 17.0449 17.9722C17.4347 14.6126 18.9216 11.3486 21.5051 8.76513C24.5473 5.72343 28.5166 4.23898 32.5001 4.23898L32.5003 4.24014ZM32.5003 16.9575C31.7935 16.9575 31.42 17.1847 31.0651 17.5095L23.2931 24.5747C22.3957 25.4076 22.4115 26.7594 23.1606 27.5776C23.9097 28.3957 25.3413 28.4548 26.1634 27.7101L30.3806 23.8685V37.4464C30.3806 38.6169 31.3293 39.5661 32.5003 39.5661C33.6713 39.5661 34.62 38.6169 34.62 37.4464V23.8685L38.8371 27.7101C39.6592 28.4553 41.0476 28.3543 41.84 27.5776C42.6748 26.7595 42.5221 25.3278 41.7074 24.5747L33.9354 17.5095C33.5155 17.1246 33.207 16.957 32.5003 16.957L32.5003 16.9575Z" fill="#0037A6"/>
</svg>
